<svg width="28" height="28" viewBox="0 0 28 28" fill="none" xmlns="http://www.w3.org/2000/svg">
<g id="ac_unit">
<mask id="mask0_44_16025" style="mask-type:alpha" maskUnits="userSpaceOnUse" x="0" y="0" width="28" height="28">
<rect id="Bounding box" width="28" height="28" fill="#D9D9D9"/>
</mask>
<g mask="url(#mask0_44_16025)">
<path id="ac_unit_2" d="M12.8359 20.8247L9.83177 23.7705C9.61788 23.9844 9.35052 24.0913 9.02969 24.0913C8.70885 24.0913 8.44149 23.9747 8.2276 23.7413C7.99427 23.5275 7.8776 23.2601 7.8776 22.9393C7.8776 22.6184 7.99427 22.3413 8.2276 22.108L12.8359 17.4997V15.1663H10.5026L5.8651 19.8038C5.65122 20.0177 5.38385 20.1247 5.06302 20.1247C4.74219 20.1247 4.4651 20.008 4.23177 19.7747C4.01788 19.5608 3.91094 19.2934 3.91094 18.9726C3.91094 18.6518 4.01788 18.3844 4.23177 18.1705L7.1776 15.1663H3.47344C3.14288 15.1663 2.87066 15.0545 2.65677 14.8309C2.44288 14.6073 2.33594 14.3302 2.33594 13.9997C2.33594 13.6691 2.44774 13.392 2.67135 13.1684C2.89497 12.9448 3.17205 12.833 3.5026 12.833H7.1776L4.23177 9.85801C4.01788 9.64412 3.91094 9.37676 3.91094 9.05592C3.91094 8.73509 4.0276 8.45801 4.26094 8.22467C4.47483 8.01079 4.74219 7.90384 5.06302 7.90384C5.38385 7.90384 5.66094 8.01079 5.89427 8.22467L10.5026 12.833H12.8359V10.4997L8.19844 5.89134C7.98455 5.67745 7.8776 5.41009 7.8776 5.08926C7.8776 4.76842 7.99427 4.49134 8.2276 4.25801C8.44149 4.04412 8.70885 3.93717 9.02969 3.93717C9.35052 3.93717 9.61788 4.04412 9.83177 4.25801L12.8359 7.17467V3.49967C12.8359 3.16912 12.9477 2.89204 13.1714 2.66842C13.395 2.44481 13.672 2.33301 14.0026 2.33301C14.3332 2.33301 14.6102 2.44481 14.8339 2.66842C15.0575 2.89204 15.1693 3.16912 15.1693 3.49967V7.17467L18.1443 4.25801C18.3582 4.04412 18.6255 3.93717 18.9464 3.93717C19.2672 3.93717 19.5443 4.04412 19.7776 4.25801C19.9915 4.49134 20.0984 4.76842 20.0984 5.08926C20.0984 5.41009 19.9915 5.67745 19.7776 5.89134L15.1693 10.4997V12.833H17.5026L22.1109 8.22467C22.3248 8.01079 22.5922 7.90384 22.913 7.90384C23.2339 7.90384 23.5109 8.02051 23.7443 8.25384C23.9582 8.46773 24.0651 8.73509 24.0651 9.05592C24.0651 9.37676 23.9582 9.64412 23.7443 9.85801L20.8276 12.833H24.5026C24.8332 12.833 25.1102 12.9448 25.3339 13.1684C25.5575 13.392 25.6693 13.6691 25.6693 13.9997C25.6693 14.3302 25.5575 14.6073 25.3339 14.8309C25.1102 15.0545 24.8332 15.1663 24.5026 15.1663H20.8276L23.7443 18.1705C23.9582 18.3844 24.0651 18.6518 24.0651 18.9726C24.0651 19.2934 23.9582 19.5608 23.7443 19.7747C23.5109 20.008 23.2339 20.1247 22.913 20.1247C22.5922 20.1247 22.3248 20.008 22.1109 19.7747L17.5026 15.1663H15.1693V17.4997L19.7776 22.1372C19.9915 22.3511 20.0984 22.6184 20.0984 22.9393C20.0984 23.2601 19.9818 23.5372 19.7484 23.7705C19.5345 23.9844 19.2672 24.0913 18.9464 24.0913C18.6255 24.0913 18.3582 23.9844 18.1443 23.7705L15.1693 20.8247V24.5288C15.1693 24.8594 15.0575 25.1316 14.8339 25.3455C14.6102 25.5594 14.3332 25.6663 14.0026 25.6663C13.672 25.6663 13.395 25.5545 13.1714 25.3309C12.9477 25.1073 12.8359 24.8302 12.8359 24.4997V20.8247Z" fill="#002774"/>
</g>
</g>
</svg>
