<svg width="28" height="28" viewBox="0 0 28 28" fill="none" xmlns="http://www.w3.org/2000/svg">
<g id="Frame">
<path id="Vector" fill-rule="evenodd" clip-rule="evenodd" d="M25.6657 10.3365V10.34C25.6657 10.788 25.5093 11.2383 25.1967 11.5813C25.0657 11.7306 24.9061 11.8521 24.7274 11.9387C24.5486 12.0254 24.3544 12.0753 24.156 12.0856C23.9577 12.096 23.7593 12.0665 23.5726 11.9989C23.3858 11.9313 23.2145 11.827 23.0687 11.6922C17.8 6.96484 10.1677 6.96484 4.91066 11.7038C4.29233 12.272 3.38 12.2102 2.806 11.5813C2.12933 10.8405 2.1865 9.63067 2.918 8.989C9.358 3.22567 18.6563 3.22567 25.0847 8.989C25.4697 9.33434 25.6657 9.83367 25.6657 10.3365ZM13.9897 23.3332C13.8395 23.3318 13.6912 23.2989 13.5546 23.2366C13.4179 23.1743 13.2959 23.084 13.1963 22.9715L11.5408 21.1573C11.0123 20.5775 11.136 19.5777 11.7777 19.195C12.4482 18.8128 13.2068 18.6119 13.9786 18.6119C14.7504 18.6119 15.5089 18.8128 16.1795 19.195C16.855 19.5788 16.967 20.5775 16.4385 21.1585L14.783 22.9727C14.6834 23.085 14.5613 23.1751 14.4247 23.2373C14.288 23.2994 14.1398 23.332 13.9897 23.3332ZM7.342 16.5548C6.656 15.8023 6.70033 14.5552 7.47733 13.938C11.3612 10.865 16.6403 10.865 20.5137 13.938C21.2907 14.5435 21.335 15.8023 20.6595 16.542L20.6478 16.5537C20.0972 17.1603 19.2303 17.2093 18.5887 16.7147C15.8412 14.5797 12.1487 14.5797 9.40233 16.7147C8.76066 17.221 7.89383 17.1592 7.342 16.5548Z" fill="#002774"/>
</g>
</svg>
