<svg width="28" height="28" viewBox="0 0 28 28" fill="none" xmlns="http://www.w3.org/2000/svg">
<g id="mingcute:parking-line" clip-path="url(#clip0_44_16034)">
<g id="Group">
<path id="Vector" fill-rule="evenodd" clip-rule="evenodd" d="M13.9987 2.3335C20.4422 2.3335 25.6654 7.55666 25.6654 14.0002C25.6654 20.4437 20.4422 25.6668 13.9987 25.6668C7.5552 25.6668 2.33203 20.4437 2.33203 14.0002C2.33203 7.55666 7.5552 2.3335 13.9987 2.3335ZM13.9987 4.66683C11.5233 4.66683 9.14937 5.65016 7.39903 7.4005C5.6487 9.15084 4.66536 11.5248 4.66536 14.0002C4.66536 16.4755 5.6487 18.8495 7.39903 20.5998C9.14937 22.3502 11.5233 23.3335 13.9987 23.3335C16.4741 23.3335 18.848 22.3502 20.5984 20.5998C22.3487 18.8495 23.332 16.4755 23.332 14.0002C23.332 11.5248 22.3487 9.15084 20.5984 7.4005C18.848 5.65016 16.4741 4.66683 13.9987 4.66683ZM15.7487 8.16683C16.8133 8.16529 17.8364 8.57958 18.5999 9.32141C19.3635 10.0632 19.8072 11.0739 19.8364 12.1381C19.8656 13.2023 19.478 14.2358 18.7563 15.0184C18.0346 15.801 17.0358 16.2708 15.9727 16.3277L15.7487 16.3335H12.832V18.6668C12.8317 18.9642 12.7178 19.2502 12.5137 19.4664C12.3096 19.6826 12.0306 19.8128 11.7337 19.8302C11.4369 19.8476 11.1446 19.751 10.9166 19.5602C10.6885 19.3693 10.542 19.0986 10.5069 18.8033L10.4987 18.6668V10.5002C10.4985 9.91149 10.7208 9.3445 11.1211 8.91286C11.5214 8.48121 12.07 8.21681 12.657 8.17266L12.832 8.16683H15.7487ZM15.7487 10.5002H12.832V14.0002H15.7487C16.1981 13.9999 16.6302 13.8268 16.9555 13.5167C17.2807 13.2065 17.4742 12.7832 17.4958 12.3343C17.5174 11.8854 17.3655 11.4454 17.0715 11.1054C16.7775 10.7655 16.364 10.5517 15.9167 10.5083L15.7487 10.5002Z" fill="#044949"/>
</g>
</g>
<defs>
<clipPath id="clip0_44_16034">
<rect width="28" height="28" fill="white"/>
</clipPath>
</defs>
</svg>
