<svg width="20" height="20" viewBox="0 0 20 20" fill="none" xmlns="http://www.w3.org/2000/svg">
<g id="heart-fill">
<path id="Vector" fill-rule="evenodd" clip-rule="evenodd" d="M9.62266 17.7287C9.62291 17.7289 9.62313 17.729 10 17.0004C10.3769 17.729 10.3771 17.7289 10.3774 17.7287C10.141 17.851 9.85903 17.851 9.62266 17.7287ZM9.62266 17.7287L10 17.0004L10.3774 17.7287L10.3799 17.7274L10.3858 17.7243L10.406 17.7137C10.4231 17.7046 10.4476 17.6916 10.479 17.6747C10.5416 17.6409 10.6316 17.5914 10.7451 17.5272C10.9719 17.3987 11.2931 17.2104 11.6774 16.9674C12.4441 16.4827 13.4703 15.7754 14.5005 14.8874C16.5137 13.1517 18.75 10.5476 18.75 7.43005C18.75 4.51607 16.4687 2.50818 14.1016 2.50818C12.4091 2.50818 10.9265 3.38483 10 4.7175C9.07347 3.38483 7.59086 2.50818 5.89844 2.50818C3.53133 2.50818 1.25 4.51607 1.25 7.43005C1.25 10.5476 3.48627 13.1517 5.49955 14.8874C6.52972 15.7754 7.55588 16.4827 8.32265 16.9674C8.70687 17.2104 9.02809 17.3987 9.25494 17.5272C9.3684 17.5914 9.45842 17.6409 9.52105 17.6747C9.55237 17.6916 9.57686 17.7046 9.59403 17.7137L9.61425 17.7243L9.62013 17.7274L9.62266 17.7287Z" fill="white"/>
</g>
</svg>
