<svg width="20" height="20" viewBox="0 0 20 20" fill="none" xmlns="http://www.w3.org/2000/svg">
<path fill-rule="evenodd" clip-rule="evenodd" d="M17.2251 5.27491C17.4006 5.45068 17.4992 5.68897 17.4992 5.93741C17.4992 6.18585 17.4006 6.42412 17.2251 6.59991L8.16256 15.6624C7.98677 15.8379 7.7485 15.9365 7.50006 15.9365C7.25162 15.9365 7.01333 15.8379 6.83756 15.6624L2.77506 11.5999C2.60946 11.4222 2.51931 11.1871 2.52358 10.9442C2.52787 10.7014 2.62626 10.4696 2.79803 10.2979C2.9698 10.1261 3.20153 10.0277 3.44441 10.0234C3.68728 10.0191 3.92233 10.1093 4.10006 10.2749L7.50006 13.6749L15.9001 5.27491C16.0758 5.09934 16.3141 5.00073 16.5626 5.00073C16.8109 5.00073 17.0493 5.09934 17.2251 5.27491Z" fill="#009900"/>
</svg>
