<svg width="28" height="28" viewBox="0 0 28 28" fill="none" xmlns="http://www.w3.org/2000/svg">
<mask id="mask0_95_4258" style="mask-type:alpha" maskUnits="userSpaceOnUse" x="0" y="0" width="28" height="28">
<rect width="28" height="28" fill="#D9D9D9"/>
</mask>
<g mask="url(#mask0_95_4258)">
<path d="M12.8307 25.6671C12.5002 25.6671 12.2231 25.5553 11.9995 25.3316C11.7759 25.108 11.6641 24.8309 11.6641 24.5004C11.6641 24.1698 11.7759 23.8928 11.9995 23.6691C12.2231 23.4455 12.5002 23.3337 12.8307 23.3337H25.6641C25.9946 23.3337 26.2717 23.4455 26.4953 23.6691C26.7189 23.8928 26.8307 24.1698 26.8307 24.5004C26.8307 24.8309 26.7189 25.108 26.4953 25.3316C26.2717 25.5553 25.9946 25.6671 25.6641 25.6671H12.8307ZM12.8307 22.1671C12.8307 20.5921 13.3266 19.2164 14.3182 18.04C15.3099 16.8636 16.5641 16.1393 18.0807 15.8671V15.1379C18.0807 14.8073 18.1925 14.5303 18.4161 14.3066C18.6398 14.083 18.9168 13.9712 19.2474 13.9712C19.5779 13.9712 19.855 14.083 20.0786 14.3066C20.3023 14.5303 20.4141 14.8073 20.4141 15.1379V15.8671C21.9113 16.1393 23.1606 16.8636 24.162 18.04C25.1634 19.2164 25.6641 20.5921 25.6641 22.1671H12.8307ZM15.8932 19.8046H22.5432C22.1738 19.2796 21.7023 18.8566 21.1286 18.5358C20.555 18.215 19.9279 18.0546 19.2474 18.0546C18.5474 18.0546 17.9057 18.215 17.3224 18.5358C16.7391 18.8566 16.2627 19.2796 15.8932 19.8046ZM1.16406 12.8337V4.66706C1.16406 4.02539 1.39253 3.47609 1.84948 3.01914C2.30642 2.5622 2.85573 2.33372 3.4974 2.33372H5.83073C6.2974 2.33372 6.76406 2.499 7.23073 2.82956C7.6974 3.16011 8.00851 3.55872 8.16406 4.02539L15.6599 1.92539C15.8738 1.86706 16.0974 1.83789 16.3307 1.83789C16.5641 1.83789 16.7877 1.87678 17.0016 1.95456L24.8474 4.40456C25.1002 4.48234 25.2995 4.62331 25.4453 4.82747C25.5911 5.03164 25.6641 5.26011 25.6641 5.51289V5.83372C25.6641 6.80595 25.3238 7.63234 24.6432 8.31289C23.9627 8.99345 23.1363 9.33373 22.1641 9.33373H19.8307V10.0337C19.8307 10.5198 19.6898 10.9622 19.4078 11.3608C19.1259 11.7594 18.7613 12.0462 18.3141 12.2212L10.8474 15.0212C10.7113 15.0601 10.58 15.0941 10.4536 15.1233C10.3273 15.1525 10.1863 15.1671 10.0307 15.1671H3.4974C2.85573 15.1671 2.30642 14.9386 1.84948 14.4816C1.39253 14.0247 1.16406 13.4754 1.16406 12.8337ZM3.4974 12.8337H5.83073V4.66706H3.4974V12.8337ZM8.16406 12.8337H10.0307L16.7974 10.3546C17.0113 10.2768 17.1814 10.1455 17.3078 9.96081C17.4342 9.77609 17.4974 9.56706 17.4974 9.33373H15.4266L13.1224 10.0921C12.8113 10.1893 12.5148 10.165 12.2328 10.0191C11.9509 9.87331 11.7613 9.63511 11.6641 9.30456C11.5668 8.99345 11.5863 8.70178 11.7224 8.42956C11.8585 8.15734 12.0821 7.97261 12.3932 7.87539L14.9599 7.00039H22.1641C22.3391 7.00039 22.5578 6.9372 22.8203 6.81081C23.0828 6.68442 23.2141 6.53372 23.2141 6.35872L16.2724 4.20039L8.16406 6.41706V12.8337Z" fill="#044949"/>
</g>
</svg>
