<svg width="24" height="24" viewBox="0 0 24 24" fill="none" xmlns="http://www.w3.org/2000/svg">
<path d="M21.9998 4.49978V7.99978C21.9998 8.265 21.8944 8.51936 21.7069 8.70689C21.5194 8.89443 21.265 8.99978 20.9998 8.99978C20.7346 8.99978 20.4802 8.89443 20.2927 8.70689C20.1051 8.51936 19.9998 8.265 19.9998 7.99978V4.49978C19.9998 4.05079 19.9478 3.99978 19.4998 3.99978H15.9998C15.7346 3.99978 15.4802 3.89443 15.2927 3.70689C15.1051 3.51936 14.9998 3.265 14.9998 2.99978C14.9998 2.73457 15.1051 2.48021 15.2927 2.29268C15.4802 2.10514 15.7346 1.99978 15.9998 1.99978H19.4998C19.835 1.97259 20.1721 2.0186 20.4878 2.13462C20.8034 2.25064 21.0901 2.4339 21.3279 2.6717C21.5657 2.9095 21.7489 3.19616 21.865 3.51182C21.981 3.82748 22.027 4.16458 21.9998 4.49978ZM7.99978 1.99978H4.49978C4.16458 1.97259 3.82748 2.0186 3.51182 2.13462C3.19616 2.25064 2.9095 2.4339 2.6717 2.6717C2.4339 2.9095 2.25064 3.19616 2.13462 3.51182C2.0186 3.82748 1.97259 4.16458 1.99978 4.49978V7.99978C1.99978 8.265 2.10514 8.51936 2.29268 8.70689C2.48021 8.89443 2.73457 8.99978 2.99978 8.99978C3.265 8.99978 3.51936 8.89443 3.70689 8.70689C3.89443 8.51936 3.99978 8.265 3.99978 7.99978V4.49978C3.99978 4.05079 4.05178 3.99978 4.49978 3.99978H7.99978C8.265 3.99978 8.51936 3.89443 8.70689 3.70689C8.89443 3.51936 8.99978 3.265 8.99978 2.99978C8.99978 2.73457 8.89443 2.48021 8.70689 2.29268C8.51936 2.10514 8.265 1.99978 7.99978 1.99978ZM7.99978 19.9998H4.49978C4.05178 19.9998 3.99978 19.9488 3.99978 19.4998V15.9998C3.99978 15.7346 3.89443 15.4802 3.70689 15.2927C3.51936 15.1051 3.265 14.9998 2.99978 14.9998C2.73457 14.9998 2.48021 15.1051 2.29268 15.2927C2.10514 15.4802 1.99978 15.7346 1.99978 15.9998V19.4998C1.97259 19.835 2.0186 20.1721 2.13462 20.4878C2.25064 20.8034 2.4339 21.0901 2.6717 21.3279C2.9095 21.5657 3.19616 21.7489 3.51182 21.865C3.82748 21.981 4.16458 22.027 4.49978 21.9998H7.99978C8.265 21.9998 8.51936 21.8944 8.70689 21.7069C8.89443 21.5194 8.99978 21.265 8.99978 20.9998C8.99978 20.7346 8.89443 20.4802 8.70689 20.2927C8.51936 20.1051 8.265 19.9998 7.99978 19.9998ZM20.9998 14.9998C20.7346 14.9998 20.4802 15.1051 20.2927 15.2927C20.1051 15.4802 19.9998 15.7346 19.9998 15.9998V19.4998C19.9998 19.9488 19.9478 19.9998 19.4998 19.9998H15.9998C15.7346 19.9998 15.4802 20.1051 15.2927 20.2927C15.1051 20.4802 14.9998 20.7346 14.9998 20.9998C14.9998 21.265 15.1051 21.5194 15.2927 21.7069C15.4802 21.8944 15.7346 21.9998 15.9998 21.9998H19.4998C19.835 22.027 20.1721 21.981 20.4878 21.865C20.8034 21.7489 21.0901 21.5657 21.3279 21.3279C21.5657 21.0901 21.7489 20.8034 21.865 20.4878C21.981 20.1721 22.027 19.835 21.9998 19.4998V15.9998C21.9998 15.7346 21.8944 15.4802 21.7069 15.2927C21.5194 15.1051 21.265 14.9998 20.9998 14.9998Z" fill="white"/>
</svg>
