<svg width="28" height="28" viewBox="0 0 28 28" fill="none" xmlns="http://www.w3.org/2000/svg">
<mask id="mask0_95_4283" style="mask-type:alpha" maskUnits="userSpaceOnUse" x="0" y="0" width="28" height="28">
<rect width="28" height="28" fill="#D9D9D9"/>
</mask>
<g mask="url(#mask0_95_4283)">
<path d="M21.0026 6.99967C20.3609 6.99967 19.8116 6.7712 19.3547 6.31426C18.8977 5.85731 18.6693 5.30801 18.6693 4.66634C18.6693 4.02467 18.8977 3.47537 19.3547 3.01842C19.8116 2.56148 20.3609 2.33301 21.0026 2.33301C21.6443 2.33301 22.1936 2.56148 22.6505 3.01842C23.1075 3.47537 23.3359 4.02467 23.3359 4.66634C23.3359 5.30801 23.1075 5.85731 22.6505 6.31426C22.1936 6.7712 21.6443 6.99967 21.0026 6.99967ZM19.8359 24.4997V16.333C19.8359 15.5552 19.6366 14.8552 19.238 14.233C18.8394 13.6108 18.329 13.1247 17.7068 12.7747L18.7276 9.77051C18.8832 9.2844 19.17 8.89551 19.588 8.60384C20.0061 8.31217 20.4776 8.16634 21.0026 8.16634C21.5276 8.16634 21.9991 8.31217 22.4172 8.60384C22.8352 8.89551 23.1221 9.2844 23.2776 9.77051L25.7276 17.1205C25.8637 17.5094 25.8102 17.8643 25.5672 18.1851C25.3241 18.5059 25.0082 18.6663 24.6193 18.6663H23.3359V24.4997C23.3359 24.8302 23.2241 25.1073 23.0005 25.3309C22.7769 25.5545 22.4998 25.6663 22.1693 25.6663H21.0026C20.6721 25.6663 20.395 25.5545 20.1714 25.3309C19.9477 25.1073 19.8359 24.8302 19.8359 24.4997ZM14.5859 13.4163C14.0998 13.4163 13.6866 13.2462 13.3464 12.9059C13.0061 12.5656 12.8359 12.1525 12.8359 11.6663C12.8359 11.1802 13.0061 10.767 13.3464 10.4268C13.6866 10.0865 14.0998 9.91634 14.5859 9.91634C15.0721 9.91634 15.4852 10.0865 15.8255 10.4268C16.1658 10.767 16.3359 11.1802 16.3359 11.6663C16.3359 12.1525 16.1658 12.5656 15.8255 12.9059C15.4852 13.2462 15.0721 13.4163 14.5859 13.4163ZM6.41927 6.99967C5.7776 6.99967 5.2283 6.7712 4.77135 6.31426C4.31441 5.85731 4.08594 5.30801 4.08594 4.66634C4.08594 4.02467 4.31441 3.47537 4.77135 3.01842C5.2283 2.56148 5.7776 2.33301 6.41927 2.33301C7.06094 2.33301 7.61024 2.56148 8.06719 3.01842C8.52413 3.47537 8.7526 4.02467 8.7526 4.66634C8.7526 5.30801 8.52413 5.85731 8.06719 6.31426C7.61024 6.7712 7.06094 6.99967 6.41927 6.99967ZM4.08594 24.4997V17.4997H3.5026C3.17205 17.4997 2.89497 17.3879 2.67135 17.1643C2.44774 16.9406 2.33594 16.6636 2.33594 16.333V10.4997C2.33594 9.85801 2.56441 9.3087 3.02135 8.85176C3.4783 8.39481 4.0276 8.16634 4.66927 8.16634H8.16927C8.81094 8.16634 9.36024 8.39481 9.81719 8.85176C10.2741 9.3087 10.5026 9.85801 10.5026 10.4997V16.333C10.5026 16.6636 10.3908 16.9406 10.1672 17.1643C9.94358 17.3879 9.66649 17.4997 9.33594 17.4997H8.7526V24.4997C8.7526 24.8302 8.6408 25.1073 8.41719 25.3309C8.19358 25.5545 7.91649 25.6663 7.58594 25.6663H5.2526C4.92205 25.6663 4.64497 25.5545 4.42135 25.3309C4.19774 25.1073 4.08594 24.8302 4.08594 24.4997ZM12.8359 24.4997V20.9997C12.5054 20.9997 12.2283 20.8879 12.0047 20.6643C11.7811 20.4406 11.6693 20.1636 11.6693 19.833V16.333C11.6693 15.8469 11.8394 15.4337 12.1797 15.0934C12.52 14.7531 12.9332 14.583 13.4193 14.583H15.7526C16.2387 14.583 16.6519 14.7531 16.9922 15.0934C17.3325 15.4337 17.5026 15.8469 17.5026 16.333V19.833C17.5026 20.1636 17.3908 20.4406 17.1672 20.6643C16.9436 20.8879 16.6665 20.9997 16.3359 20.9997V24.4997C16.3359 24.8302 16.2241 25.1073 16.0005 25.3309C15.7769 25.5545 15.4998 25.6663 15.1693 25.6663H14.0026C13.6721 25.6663 13.395 25.5545 13.1714 25.3309C12.9477 25.1073 12.8359 24.8302 12.8359 24.4997Z" fill="#044949"/>
</g>
</svg>
