<svg width="20" height="20" viewBox="0 0 20 20" fill="none" xmlns="http://www.w3.org/2000/svg">
<path fill-rule="evenodd" clip-rule="evenodd" d="M9.62266 17.7286C9.62291 17.7288 9.62313 17.7289 10 17.0002C10.3769 17.7289 10.3771 17.7288 10.3774 17.7286C10.141 17.8509 9.85903 17.8509 9.62266 17.7286ZM9.62266 17.7286L10 17.0002L10.3774 17.7286L10.3799 17.7273L10.3858 17.7242L10.406 17.7136C10.4231 17.7045 10.4476 17.6915 10.479 17.6745C10.5416 17.6407 10.6316 17.5913 10.7451 17.5271C10.9719 17.3986 11.2931 17.2102 11.6774 16.9673C12.4441 16.4826 13.4703 15.7752 14.5005 14.8872C16.5137 13.1516 18.75 10.5475 18.75 7.42993C18.75 4.51595 16.4687 2.50806 14.1016 2.50806C12.4091 2.50806 10.9265 3.38471 10 4.71738C9.07347 3.38471 7.59086 2.50806 5.89844 2.50806C3.53133 2.50806 1.25 4.51595 1.25 7.42993C1.25 10.5475 3.48627 13.1516 5.49955 14.8872C6.52972 15.7752 7.55588 16.4826 8.32265 16.9673C8.70687 17.2102 9.02809 17.3986 9.25494 17.5271C9.3684 17.5913 9.45842 17.6407 9.52105 17.6745C9.55237 17.6915 9.57686 17.7045 9.59403 17.7136L9.61425 17.7242L9.62013 17.7273L9.62266 17.7286Z" fill="white"/>
</svg>
