<svg width="28" height="28" viewBox="0 0 28 28" fill="none" xmlns="http://www.w3.org/2000/svg">
<mask id="mask0_95_4293" style="mask-type:alpha" maskUnits="userSpaceOnUse" x="0" y="0" width="28" height="28">
<rect width="28" height="28" fill="#D9D9D9"/>
</mask>
<g mask="url(#mask0_95_4293)">
<path d="M2.33594 13.9705C2.33594 13.3288 2.56441 12.7844 3.02135 12.3372C3.4783 11.89 4.0276 11.6663 4.66927 11.6663V8.16634C4.66927 7.52467 4.89774 6.97537 5.35469 6.51842C5.81163 6.06148 6.36094 5.83301 7.0026 5.83301H21.0026C21.6443 5.83301 22.1936 6.06148 22.6505 6.51842C23.1075 6.97537 23.3359 7.52467 23.3359 8.16634V11.6663C23.9776 11.6663 24.5269 11.8948 24.9839 12.3518C25.4408 12.8087 25.6693 13.358 25.6693 13.9997V18.258C25.6693 18.7052 25.5186 19.0795 25.2172 19.3809C24.9158 19.6823 24.5415 19.833 24.0943 19.833L23.4526 21.7872C23.4137 21.9038 23.3457 21.9962 23.2484 22.0643C23.1512 22.1323 23.0443 22.1663 22.9276 22.1663H22.5776C22.4609 22.1663 22.354 22.1323 22.2568 22.0643C22.1595 21.9962 22.0915 21.9038 22.0526 21.7872L21.4109 19.833H6.59427L5.9526 21.7872C5.91372 21.9038 5.84566 21.9962 5.74844 22.0643C5.65122 22.1323 5.54427 22.1663 5.4276 22.1663H5.0776C4.96094 22.1663 4.85399 22.1323 4.75677 22.0643C4.65955 21.9962 4.59149 21.9038 4.5526 21.7872L3.91094 19.833C3.46372 19.833 3.08941 19.6823 2.78802 19.3809C2.48663 19.0795 2.33594 18.7052 2.33594 18.258V13.9705ZM15.1693 11.6663H21.0026V8.16634H15.1693V11.6663ZM7.0026 11.6663H12.8359V8.16634H7.0026V11.6663ZM4.66927 17.4997H23.3359V13.9997H4.66927V17.4997Z" fill="#044949"/>
</g>
</svg>
