<svg width="28" height="28" viewBox="0 0 28 28" fill="none" xmlns="http://www.w3.org/2000/svg">
<mask id="mask0_95_4288" style="mask-type:alpha" maskUnits="userSpaceOnUse" x="0" y="0" width="28" height="28">
<rect width="28" height="28" fill="#D9D9D9"/>
</mask>
<g mask="url(#mask0_95_4288)">
<path d="M13.9974 11.6663C12.7141 11.6663 11.6155 11.2094 10.7016 10.2955C9.78767 9.38162 9.33073 8.28301 9.33073 6.99967C9.33073 5.71634 9.78767 4.61773 10.7016 3.70384C11.6155 2.78995 12.7141 2.33301 13.9974 2.33301C15.2807 2.33301 16.3793 2.78995 17.2932 3.70384C18.2071 4.61773 18.6641 5.71634 18.6641 6.99967C18.6641 8.28301 18.2071 9.38162 17.2932 10.2955C16.3793 11.2094 15.2807 11.6663 13.9974 11.6663ZM13.9974 9.33301C14.6391 9.33301 15.1884 9.10454 15.6453 8.64759C16.1023 8.19065 16.3307 7.64134 16.3307 6.99967C16.3307 6.35801 16.1023 5.8087 15.6453 5.35176C15.1884 4.89481 14.6391 4.66634 13.9974 4.66634C13.3557 4.66634 12.8064 4.89481 12.3495 5.35176C11.8925 5.8087 11.6641 6.35801 11.6641 6.99967C11.6641 7.64134 11.8925 8.19065 12.3495 8.64759C12.8064 9.10454 13.3557 9.33301 13.9974 9.33301ZM13.9974 12.833C15.4752 12.833 16.8411 13.008 18.0953 13.358C19.3495 13.708 20.4724 14.1358 21.4641 14.6413C22.0474 14.9525 22.5043 15.3851 22.8349 15.9393C23.1655 16.4934 23.3307 17.1011 23.3307 17.7622V23.333C23.3307 23.9747 23.1023 24.524 22.6453 24.9809C22.1884 25.4379 21.6391 25.6663 20.9974 25.6663H11.3724C10.478 25.6663 9.71962 25.3552 9.0974 24.733C8.47517 24.1108 8.16406 23.3525 8.16406 22.458C8.16406 21.5636 8.47517 20.8052 9.0974 20.183C9.71962 19.5608 10.478 19.2497 11.3724 19.2497H14.6682L16.4766 15.3997C16.0877 15.3219 15.6891 15.2636 15.2807 15.2247C14.8724 15.1858 14.4446 15.1663 13.9974 15.1663C12.5974 15.1663 11.353 15.3365 10.2641 15.6768C9.17517 16.017 8.29045 16.3719 7.6099 16.7413C7.41545 16.8386 7.26476 16.9795 7.15781 17.1643C7.05087 17.349 6.9974 17.5483 6.9974 17.7622V24.4997C6.9974 24.8302 6.88559 25.1073 6.66198 25.3309C6.43837 25.5545 6.16128 25.6663 5.83073 25.6663C5.50017 25.6663 5.22309 25.5545 4.99948 25.3309C4.77587 25.1073 4.66406 24.8302 4.66406 24.4997V17.7622C4.66406 17.1011 4.82934 16.4934 5.1599 15.9393C5.49045 15.3851 5.9474 14.9525 6.53073 14.6413C7.5224 14.1358 8.64531 13.708 9.89948 13.358C11.1536 13.008 12.5196 12.833 13.9974 12.833ZM11.3724 23.333H12.7724L13.5891 21.583H11.3724C11.1391 21.583 10.9349 21.6705 10.7599 21.8455C10.5849 22.0205 10.4974 22.2247 10.4974 22.458C10.4974 22.6913 10.5849 22.8955 10.7599 23.0705C10.9349 23.2455 11.1391 23.333 11.3724 23.333ZM15.3391 23.333H20.9974V17.7622C20.9974 17.5483 20.9439 17.349 20.837 17.1643C20.73 16.9795 20.5891 16.8386 20.4141 16.7413C20.1807 16.6247 19.928 16.5031 19.6557 16.3768C19.3835 16.2504 19.0918 16.1288 18.7807 16.0122L15.3391 23.333Z" fill="#002774"/>
</g>
</svg>
