<svg width="28" height="28" viewBox="0 0 28 28" fill="none" xmlns="http://www.w3.org/2000/svg">
<mask id="mask0_95_4272" style="mask-type:alpha" maskUnits="userSpaceOnUse" x="0" y="0" width="28" height="28">
<rect width="28" height="28" fill="#D9D9D9"/>
</mask>
<g mask="url(#mask0_95_4272)">
<path d="M9.33594 21C9.00538 21 8.7283 20.8882 8.50469 20.6646C8.28108 20.441 8.16927 20.1639 8.16927 19.8333C8.16927 19.5028 8.28108 19.2257 8.50469 19.0021C8.7283 18.7785 9.00538 18.6667 9.33594 18.6667C9.66649 18.6667 9.94358 18.7785 10.1672 19.0021C10.3908 19.2257 10.5026 19.5028 10.5026 19.8333C10.5026 20.1639 10.3908 20.441 10.1672 20.6646C9.94358 20.8882 9.66649 21 9.33594 21ZM14.0026 21C13.672 21 13.395 20.8882 13.1714 20.6646C12.9477 20.441 12.8359 20.1639 12.8359 19.8333C12.8359 19.5028 12.9477 19.2257 13.1714 19.0021C13.395 18.7785 13.672 18.6667 14.0026 18.6667C14.3332 18.6667 14.6102 18.7785 14.8339 19.0021C15.0575 19.2257 15.1693 19.5028 15.1693 19.8333C15.1693 20.1639 15.0575 20.441 14.8339 20.6646C14.6102 20.8882 14.3332 21 14.0026 21ZM18.6693 21C18.3387 21 18.0616 20.8882 17.838 20.6646C17.6144 20.441 17.5026 20.1639 17.5026 19.8333C17.5026 19.5028 17.6144 19.2257 17.838 19.0021C18.0616 18.7785 18.3387 18.6667 18.6693 18.6667C18.9998 18.6667 19.2769 18.7785 19.5005 19.0021C19.7241 19.2257 19.8359 19.5028 19.8359 19.8333C19.8359 20.1639 19.7241 20.441 19.5005 20.6646C19.2769 20.8882 18.9998 21 18.6693 21ZM7.0026 16.3333C6.67205 16.3333 6.39497 16.2215 6.17135 15.9979C5.94774 15.7743 5.83594 15.4972 5.83594 15.1667V14C5.83594 11.9389 6.49705 10.15 7.81927 8.63333C9.14149 7.11667 10.8137 6.22222 12.8359 5.95V4.66667C12.8359 4.33611 12.9477 4.05903 13.1714 3.83542C13.395 3.61181 13.672 3.5 14.0026 3.5C14.3332 3.5 14.6102 3.61181 14.8339 3.83542C15.0575 4.05903 15.1693 4.33611 15.1693 4.66667V5.95C17.1915 6.22222 18.8637 7.11667 20.1859 8.63333C21.5082 10.15 22.1693 11.9389 22.1693 14V15.1667C22.1693 15.4972 22.0575 15.7743 21.8339 15.9979C21.6102 16.2215 21.3332 16.3333 21.0026 16.3333H7.0026ZM8.16927 14H19.8359C19.8359 12.3861 19.2672 11.0104 18.1297 9.87292C16.9922 8.73542 15.6165 8.16667 14.0026 8.16667C12.3887 8.16667 11.013 8.73542 9.87552 9.87292C8.73802 11.0104 8.16927 12.3861 8.16927 14ZM9.33594 24.5C9.00538 24.5 8.7283 24.3882 8.50469 24.1646C8.28108 23.941 8.16927 23.6639 8.16927 23.3333C8.16927 23.0028 8.28108 22.7257 8.50469 22.5021C8.7283 22.2785 9.00538 22.1667 9.33594 22.1667C9.66649 22.1667 9.94358 22.2785 10.1672 22.5021C10.3908 22.7257 10.5026 23.0028 10.5026 23.3333C10.5026 23.6639 10.3908 23.941 10.1672 24.1646C9.94358 24.3882 9.66649 24.5 9.33594 24.5ZM14.0026 24.5C13.672 24.5 13.395 24.3882 13.1714 24.1646C12.9477 23.941 12.8359 23.6639 12.8359 23.3333C12.8359 23.0028 12.9477 22.7257 13.1714 22.5021C13.395 22.2785 13.672 22.1667 14.0026 22.1667C14.3332 22.1667 14.6102 22.2785 14.8339 22.5021C15.0575 22.7257 15.1693 23.0028 15.1693 23.3333C15.1693 23.6639 15.0575 23.941 14.8339 24.1646C14.6102 24.3882 14.3332 24.5 14.0026 24.5ZM18.6693 24.5C18.3387 24.5 18.0616 24.3882 17.838 24.1646C17.6144 23.941 17.5026 23.6639 17.5026 23.3333C17.5026 23.0028 17.6144 22.7257 17.838 22.5021C18.0616 22.2785 18.3387 22.1667 18.6693 22.1667C18.9998 22.1667 19.2769 22.2785 19.5005 22.5021C19.7241 22.7257 19.8359 23.0028 19.8359 23.3333C19.8359 23.6639 19.7241 23.941 19.5005 24.1646C19.2769 24.3882 18.9998 24.5 18.6693 24.5Z" fill="#044949"/>
</g>
</svg>
