<svg width="24" height="24" viewBox="0 0 24 24" fill="none" xmlns="http://www.w3.org/2000/svg">
<g id="Frame" clip-path="url(#clip0_251_8066)">
<g id="Group">
<path id="Vector" d="M17.9996 0H5.99985C2.70023 0 0 2.70023 0 5.99985V18.0001C0 21.2989 2.70023 24 5.99985 24H17.9996C21.2992 24 23.9994 21.2989 23.9994 18.0001V5.99985C23.9994 2.70023 21.2992 0 17.9996 0ZM21.9994 18.0001C21.9994 20.2051 20.2057 22 17.9996 22H5.99985C3.79461 22 2.00005 20.2051 2.00005 18.0001V5.99985C2.00005 3.79432 3.79461 2.00005 5.99985 2.00005H17.9996C20.2057 2.00005 21.9994 3.79432 21.9994 5.99985V18.0001Z" fill="#98A2B3"/>
<path id="Vector_2" d="M18.5009 6.99973C19.3293 6.99973 20.0009 6.32817 20.0009 5.49976C20.0009 4.67136 19.3293 3.9998 18.5009 3.9998C17.6725 3.9998 17.001 4.67136 17.001 5.49976C17.001 6.32817 17.6725 6.99973 18.5009 6.99973Z" fill="#98A2B3"/>
<path id="Vector_3" d="M11.9999 5.99986C8.68552 5.99986 6 8.68567 6 11.9997C6 15.3125 8.68552 18.0001 11.9999 18.0001C15.3132 18.0001 17.9997 15.3125 17.9997 11.9997C17.9997 8.68567 15.3132 5.99986 11.9999 5.99986ZM11.9999 16.0001C9.79098 16.0001 8.00005 14.2092 8.00005 11.9997C8.00005 9.79025 9.79098 7.9999 11.9999 7.9999C14.2087 7.9999 15.9997 9.79025 15.9997 11.9997C15.9997 14.2092 14.2087 16.0001 11.9999 16.0001Z" fill="#98A2B3"/>
</g>
</g>
<defs>
<clipPath id="clip0_251_8066">
<rect width="24" height="24" fill="white"/>
</clipPath>
</defs>
</svg>
