<svg width="72" height="66" viewBox="0 0 72 66" fill="none" xmlns="http://www.w3.org/2000/svg">
<g id="destination 1" clip-path="url(#clip0_155_4505)">
<g id="Group">
<path id="Vector" d="M13.8049 12.3354C12.4118 12.3354 11.2783 13.4689 11.2783 14.8622C11.2783 16.2554 12.4118 17.3888 13.8049 17.3888C15.1983 17.3888 16.3317 16.2554 16.3317 14.8622C16.3317 13.4689 15.1983 12.3354 13.8049 12.3354Z" fill="#002774"/>
<path id="Vector_2" d="M52.4573 67.3392C53.62 64.5341 52.2886 61.3177 49.4837 60.155C46.6787 58.9924 43.4623 60.3238 42.2996 63.1288C41.1369 65.9338 42.4682 69.1503 45.2732 70.313C48.0781 71.4756 51.2946 70.1442 52.4573 67.3392Z" fill="#002774"/>
<path id="Vector_3" d="M37.5178 65.2192C37.5178 64.6524 37.5686 64.0977 37.6611 63.5569H9.17015C6.85591 63.5569 4.97305 61.674 4.97305 59.3596C4.97305 57.0453 6.85591 55.1624 9.17015 55.1624H28.8109C33.2766 55.1624 36.9098 51.5293 36.9098 47.0636C36.9098 42.598 33.2767 38.9648 28.8109 38.9648H20.1619L17.5653 43.3059H28.8109C30.883 43.3059 32.5686 44.9916 32.5686 47.0636C32.5686 49.1357 30.8828 50.8213 28.8109 50.8213H9.17015C4.46216 50.8213 0.631836 54.6517 0.631836 59.3596C0.631836 64.0676 4.46216 67.898 9.17015 67.898H37.8916C37.6498 67.0457 37.5178 66.1478 37.5178 65.2192Z" fill="#002774"/>
<path id="Vector_4" d="M72.5983 35.1732C72.5641 34.3181 72.0303 33.5629 71.2356 33.245L48.1634 24.016C47.4946 23.7487 46.7367 23.8302 46.1403 24.234C45.5439 24.6379 45.1865 25.3111 45.1865 26.0313V55.6249C45.8849 55.467 46.6103 55.3809 47.3558 55.3809C48.1023 55.3809 48.8283 55.4673 49.5276 55.6255V48.0582L71.3944 37.2044C72.1611 36.824 72.6326 36.0284 72.5983 35.1732Z" fill="#002774"/>
<path id="Vector_5" d="M27.2197 14.5942C27.2197 7.24333 21.2606 1.28418 13.9097 1.28418C6.55876 1.28418 0.599609 7.24333 0.599609 14.5942V14.6495C0.599609 17.3064 1.31053 19.915 2.65861 22.2046L12.7873 39.407C13.2458 40.1856 14.3707 40.1895 14.8345 39.414L25.1082 22.2376C26.49 19.9276 27.2197 17.2861 27.2197 14.5942ZM13.805 21.73C10.0181 21.73 6.93718 18.649 6.93718 14.8621C6.93718 11.0752 10.0181 7.99428 13.805 7.99428C17.5919 7.99428 20.6729 11.0752 20.6729 14.8621C20.6729 18.6492 17.5919 21.73 13.805 21.73Z" fill="#002774"/>
</g>
</g>
<defs>
<clipPath id="clip0_155_4505">
<rect width="72" height="72" fill="white" transform="translate(0.599609)"/>
</clipPath>
</defs>
</svg>
