<svg width="72" height="66" viewBox="0 0 72 66" fill="none" xmlns="http://www.w3.org/2000/svg">
<g id="bed">
<mask id="mask0_18_1310" style="mask-type:alpha" maskUnits="userSpaceOnUse" x="0" y="0" width="73" height="72">
<rect id="Bounding box" x="0.199219" width="72" height="72" fill="#D9D9D9"/>
</mask>
<g mask="url(#mask0_18_1310)">
<path id="bed_2" d="M7.39941 51.3V37.8C7.39941 36.5 7.71191 35.275 8.33691 34.125C8.96191 32.975 9.84941 32.125 10.9994 31.575V25.2C10.9994 23.2 11.6994 21.5 13.0994 20.1C14.4994 18.7 16.1994 18 18.1994 18H31.6994C32.5574 18 33.3593 18.1375 34.1053 18.4125C34.8514 18.6875 35.5494 19.1 36.1994 19.65C36.8494 19.1 37.5474 18.6875 38.2935 18.4125C39.0395 18.1375 39.8415 18 40.6994 18H54.1994C56.1994 18 57.8994 18.7 59.2994 20.1C60.6994 21.5 61.3994 23.2 61.3994 25.2V31.575C62.5494 32.125 63.4369 32.975 64.0619 34.125C64.6869 35.275 64.9994 36.5 64.9994 37.8V51.3C64.9994 52.065 64.7422 52.7062 64.2277 53.2238C63.7132 53.7412 63.0757 54 62.3152 54C61.5547 54 60.9119 53.7412 60.3869 53.2238C59.8619 52.7062 59.5994 52.065 59.5994 51.3V48.6H12.7994V51.2842C12.7994 52.0447 12.5422 52.6875 12.0277 53.2125C11.5132 53.7375 10.8757 54 10.1152 54C9.35469 54 8.71191 53.7412 8.18691 53.2238C7.66191 52.7062 7.39941 52.065 7.39941 51.3ZM38.8994 30.6H55.9994V25.2C55.9994 24.69 55.8269 24.2625 55.4819 23.9175C55.1369 23.5725 54.7094 23.4 54.1994 23.4H40.6994C40.1894 23.4 39.7619 23.5725 39.4169 23.9175C39.0719 24.2625 38.8994 24.69 38.8994 25.2V30.6ZM16.3994 30.6H33.4994V25.2C33.4994 24.69 33.3269 24.2625 32.9819 23.9175C32.6369 23.5725 32.2094 23.4 31.6994 23.4H18.1994C17.6894 23.4 17.2619 23.5725 16.9169 23.9175C16.5719 24.2625 16.3994 24.69 16.3994 25.2V30.6Z" fill="#002774"/>
</g>
</g>
</svg>
