<svg width="65" height="62" viewBox="0 0 65 62" fill="none" xmlns="http://www.w3.org/2000/svg">
<g id="tickets 1" clip-path="url(#clip0_155_4487)">
<g id="Group">
<path id="Vector" d="M41.1713 23.2434C61.9933 23.2434 60.455 23.239 60.7757 23.2514C60.5873 22.5322 60.213 21.8519 59.6503 21.2892L53.9416 15.5806C52.708 14.3469 50.8141 13.9882 49.2284 14.6886C48.377 15.0648 47.3624 14.8749 46.7038 14.2164C46.0452 13.5579 45.8555 12.5433 46.2315 11.6919C46.9318 10.1066 46.5734 8.21241 45.3395 6.97859L39.6309 1.26992C37.9388 -0.421941 35.1858 -0.422067 33.4937 1.26992L26.3516 8.41207C28.3643 10.4264 39.1639 21.2343 41.1713 23.2434Z" fill="#002774"/>
<path id="Vector_2" d="M23.6897 11.0742L11.5205 23.2434H35.8473C35.8032 23.1992 34.8722 22.2672 23.6897 11.0742Z" fill="#002774"/>
<path id="Vector_3" d="M62.0975 43.3842C63.7136 42.7585 64.7995 41.1655 64.7995 39.4207V31.3475C64.7995 28.9547 62.8527 27.0078 60.4598 27.0078H51.623V63.9987H60.4598C62.8527 63.9987 64.7995 62.0518 64.7995 59.659V51.5858C64.7995 49.8411 63.7138 48.2482 62.0976 47.6223C61.2294 47.286 60.6462 46.4344 60.6462 45.5032C60.6462 44.5719 61.2294 43.7203 62.0975 43.3842Z" fill="#002774"/>
<path id="Vector_4" d="M0.799805 31.3475V39.4207C0.799805 41.1655 1.88567 42.7585 3.50173 43.384C4.36988 43.7203 4.95303 44.5719 4.95303 45.5032C4.95303 46.4344 4.36975 47.286 3.50161 47.6223C1.88555 48.2482 0.799805 49.841 0.799805 51.5858V59.659C0.799805 62.0518 2.74666 63.9987 5.13951 63.9987H47.8586V27.0078H5.13951C2.74666 27.0078 0.799805 28.9545 0.799805 31.3475ZM13.9763 35.7634H42.2116V39.5281H13.9763V35.7634ZM13.9763 43.2928H42.2116V47.0575H13.9763V43.2928ZM13.9763 50.8222H42.2116V54.5869H13.9763V50.8222Z" fill="#002774"/>
</g>
</g>
<defs>
<clipPath id="clip0_155_4487">
<rect width="64" height="64" fill="white" transform="translate(0.799805)"/>
</clipPath>
</defs>
</svg>
