<svg width="72" height="66" viewBox="0 0 72 66" fill="none" xmlns="http://www.w3.org/2000/svg">
<g id="visa 1">
<path id="Vector" d="M39.4812 63.9228C38.8248 63.6906 38.2563 63.2612 37.8535 62.6933C37.4507 62.1254 37.2334 61.4468 37.2314 60.7506V59.6257H13.6086C13.3142 59.6197 13.0339 59.4986 12.8278 59.2882C12.6217 59.0779 12.5063 58.7952 12.5063 58.5008C12.5063 58.2063 12.6218 57.9236 12.8279 57.7133C13.034 57.503 13.3143 57.3818 13.6087 57.3759H37.8388C38.2316 56.691 38.7985 56.1222 39.482 55.7271C40.1655 55.332 40.9414 55.1246 41.7309 55.1261H45.2519C45.4003 54.5479 45.6629 54.0053 46.0242 53.5301C46.3854 53.0548 46.838 52.6566 47.3554 52.3588V46.4082C46.3154 45.5617 45.4763 44.495 44.8986 43.2849C44.3209 42.0749 44.019 40.7516 44.0147 39.4108C44.0104 38.0699 44.3038 36.7447 44.8737 35.531C45.4436 34.3172 46.2759 33.2451 47.3104 32.392C47.4978 32.2359 47.693 32.0895 47.8953 31.9533V14.5512C47.8927 13.657 47.5363 12.8002 46.904 12.1679C46.2717 11.5355 45.4148 11.1792 44.5206 11.1765H42.9683V8.08305C42.9615 7.54764 42.8359 7.02043 42.6004 6.53953C42.365 6.05862 42.0256 5.63604 41.6069 5.30234C41.1881 4.96864 40.7005 4.73215 40.1791 4.60998C39.6578 4.48781 39.1158 4.483 38.5924 4.59591L9.3453 11.2103C8.51871 11.2985 7.75347 11.6878 7.19542 12.3039C6.63738 12.92 6.32554 13.72 6.31934 14.5512V64.1253C6.32196 65.0195 6.67834 65.8763 7.31065 66.5086C7.94296 67.1409 8.7998 67.4973 9.69401 67.4999H40.0886C39.5453 66.3911 39.3344 65.1488 39.4812 63.9228ZM36.1064 55.1261H18.1082C17.8125 55.122 17.5304 55.0017 17.3227 54.7912C17.1151 54.5807 16.9987 54.2969 16.9987 54.0012C16.9987 53.7055 17.1152 53.4217 17.3228 53.2112C17.5304 53.0007 17.8126 52.8804 18.1083 52.8763H36.1064C36.4021 52.8804 36.6843 53.0007 36.8919 53.2112C37.0995 53.4217 37.2159 53.7055 37.2159 54.0012C37.2159 54.2969 37.0995 54.5807 36.8919 54.7912C36.6843 55.0017 36.4021 55.122 36.1064 55.1261ZM39.0762 6.78944C39.2715 6.74687 39.4737 6.74804 39.6684 6.79287C39.8632 6.8377 40.0456 6.92508 40.2026 7.04874C40.3596 7.17239 40.4872 7.32926 40.5764 7.50808C40.6656 7.68691 40.7142 7.88326 40.7185 8.08305V11.1765H19.6605L39.0762 6.78944ZM40.606 33.4495C40.6028 37.0274 39.1791 40.4577 36.648 42.9865C34.1168 45.5154 30.6852 46.9358 27.1073 46.9358C23.5293 46.9358 20.0978 45.5153 17.5666 42.9865C15.0355 40.4576 13.6119 37.0274 13.6086 33.4494C14.3538 15.5418 39.8636 15.547 40.606 33.4495Z" fill="#002774"/>
<path id="Vector_2" d="M32.5527 43.2809C34.1441 42.4033 35.4985 41.1525 36.4998 39.6359C37.501 38.1193 38.1191 36.3824 38.3009 34.5742H34.9712C34.9081 37.6333 34.0764 40.6274 32.5527 43.2809Z" fill="#002774"/>
<path id="Vector_3" d="M38.3009 32.3248C38.1161 30.5175 37.4968 28.7818 36.4959 27.2657C35.4949 25.7496 34.1421 24.4982 32.5527 23.6182C34.0749 26.2722 34.9065 29.2659 34.9712 32.3248H38.3009Z" fill="#002774"/>
<path id="Vector_4" d="M32.7207 34.5742H28.2324V44.462C30.5947 43.4721 32.4733 39.4225 32.7207 34.5742Z" fill="#002774"/>
<path id="Vector_5" d="M21.6632 43.2809C20.1396 40.6274 19.3079 37.6333 19.2447 34.5742H15.915C16.0969 36.3824 16.7149 38.1193 17.7162 39.6359C18.7174 41.1525 20.0719 42.4033 21.6632 43.2809Z" fill="#002774"/>
<path id="Vector_6" d="M21.6632 23.6182C20.0739 24.4982 18.721 25.7496 17.7201 27.2657C16.7192 28.7818 16.0999 30.5175 15.915 32.3248H19.2447C19.3095 29.2659 20.1411 26.2722 21.6632 23.6182Z" fill="#002774"/>
<path id="Vector_7" d="M25.9825 44.462V34.5742H21.4941C21.7416 39.4225 23.6202 43.4721 25.9825 44.462Z" fill="#002774"/>
<path id="Vector_8" d="M25.9825 32.3248V22.437C23.6202 23.4381 21.7416 27.4878 21.4941 32.3248L25.9825 32.3248Z" fill="#002774"/>
<path id="Vector_9" d="M28.2324 22.437V32.3248H32.7207C32.4733 27.4878 30.5947 23.4381 28.2324 22.437Z" fill="#002774"/>
<path id="Vector_10" d="M64.2291 57.3762H58.6046V56.2513C58.6029 55.6552 58.3653 55.084 57.9437 54.6624C57.5222 54.2409 56.951 54.0033 56.3548 54.0016V45.7673C56.3618 45.5925 56.4116 45.422 56.4999 45.271C56.5881 45.1199 56.7122 44.9929 56.8611 44.901C57.9346 44.1471 58.7653 43.0969 59.2518 41.8786C59.7383 40.6603 59.8595 39.3268 59.6006 38.0408C59.3418 36.7547 58.714 35.5719 57.794 34.6368C56.874 33.7017 55.7017 33.0547 54.4201 32.7748C53.4297 32.5657 52.4053 32.5793 51.4208 32.8147C50.4364 33.0501 49.5166 33.5014 48.728 34.1359C47.9138 34.7968 47.2648 35.6382 46.8322 36.5935C46.3996 37.5487 46.1954 38.5916 46.2358 39.6395C46.2762 40.6874 46.56 41.7114 47.0649 42.6306C47.5697 43.5497 48.2816 44.3387 49.1443 44.9349C49.282 45.0241 49.396 45.1454 49.4764 45.2885C49.5567 45.4316 49.601 45.592 49.6055 45.7561V54.0016C49.0093 54.0033 48.4381 54.2409 48.0165 54.6624C47.595 55.084 47.3574 55.6552 47.3557 56.2513V57.3762H41.7312C41.1351 57.378 40.5638 57.6156 40.1423 58.0371C39.7208 58.4586 39.4832 59.0299 39.4814 59.626V60.7509C39.4823 61.049 39.6011 61.3346 39.8119 61.5454C40.0226 61.7561 40.3083 61.8749 40.6063 61.8758H65.354C65.652 61.8749 65.9377 61.7561 66.1484 61.5453C66.3592 61.3346 66.478 61.049 66.4789 60.7509V59.626C66.4771 59.0299 66.2395 58.4586 65.818 58.0371C65.3965 57.6155 64.8252 57.3779 64.2291 57.3762Z" fill="#002774"/>
<path id="Vector_11" d="M41.7314 65.2501C41.7332 65.8463 41.9708 66.4175 42.3923 66.839C42.8139 67.2606 43.3851 67.4982 43.9812 67.4999H61.9795C62.5757 67.4982 63.1469 67.2606 63.5684 66.839C63.99 66.4175 64.2275 65.8463 64.2293 65.2501V64.1252H41.7314V65.2501Z" fill="#002774"/>
</g>
</svg>
