<svg width="71" height="66" viewBox="0 0 71 66" fill="none" xmlns="http://www.w3.org/2000/svg">
<g id="delivery-truck 1">
<path id="Vector" fill-rule="evenodd" clip-rule="evenodd" d="M65.572 34.3147L61.6898 25.1735C61.4645 24.6429 60.9719 24.3169 60.3955 24.3169H51.9645C51.1899 24.3169 50.5582 24.9486 50.5582 25.7232V33.8863C50.5582 34.6609 51.1899 35.2926 51.9645 35.2926H64.9249C65.168 35.2926 65.377 35.1802 65.5111 34.9776C65.6453 34.7748 65.667 34.5386 65.572 34.3147ZM27.5119 10.9683H19.8478V23.4615H27.5119V10.9683ZM1.125 51.8908V45.6671H45.1097V54.7032H26.6729C26.6729 49.9664 22.8316 46.1251 18.0948 46.1251C13.358 46.1251 9.51666 49.9664 9.51666 54.7032H3.93736C2.38838 54.7032 1.125 53.4398 1.125 51.8908ZM1.125 43.4169V13.7806C1.125 12.2316 2.38838 10.9683 3.93736 10.9683H17.5978V24.3053C17.5978 25.0798 18.2295 25.7115 19.0041 25.7115H28.3556C29.1302 25.7115 29.7619 25.0798 29.7619 24.3053V10.9683H42.2973C43.8463 10.9683 45.1097 12.2318 45.1097 13.7806V43.4169H1.125ZM58.555 51.5391C56.8063 51.5391 55.3909 52.9545 55.3909 54.7032C55.3909 56.4519 56.8062 57.8673 58.555 57.8673C60.3037 57.8673 61.719 56.452 61.719 54.7032C61.719 52.9545 60.3037 51.5391 58.555 51.5391ZM58.555 48.3751C62.0499 48.3751 64.8831 51.2082 64.8831 54.7032C64.8831 58.1982 62.0499 61.0313 58.555 61.0313C55.06 61.0313 52.2269 58.1982 52.2269 54.7032C52.2269 51.2082 55.06 48.3751 58.555 48.3751ZM18.0946 51.5391C16.346 51.5391 14.9307 52.9545 14.9307 54.7032C14.9307 56.4519 16.346 57.8673 18.0946 57.8673C19.8433 57.8673 21.2587 56.452 21.2587 54.7032C21.2588 52.9545 19.8435 51.5391 18.0946 51.5391ZM18.0946 48.3751C14.5997 48.3751 11.7665 51.2082 11.7665 54.7032C11.7665 58.1982 14.5997 61.0313 18.0946 61.0313C21.5896 61.0313 24.4228 58.1982 24.4228 54.7032C24.4229 51.2082 21.5897 48.3751 18.0946 48.3751ZM47.3598 19.9937H61.7766C63.2585 19.9937 64.5225 20.7839 65.0583 22.0457L70.6369 35.1809C70.8019 35.5696 70.875 35.926 70.875 36.3428V52.5938C70.875 53.7557 69.9275 54.7032 68.7656 54.7032H67.1331C67.1331 49.9664 63.2918 46.1251 58.555 46.1251C53.8182 46.1251 49.9769 49.9664 49.9769 54.7032H47.3598V19.9937Z" fill="#044949"/>
</g>
</svg>
