<svg width="32" height="32" viewBox="0 0 32 32" fill="none" xmlns="http://www.w3.org/2000/svg">
<g id="chevron_right">
<mask id="mask0_18_1277" style="mask-type:alpha" maskUnits="userSpaceOnUse" x="0" y="0" width="32" height="32">
<rect id="Bounding box" width="32" height="32" fill="#D9D9D9"/>
</mask>
<g mask="url(#mask0_18_1277)">
<path id="chevron_right_2" d="M16.8001 16.0002L11.6001 10.8002C11.3556 10.5558 11.2334 10.2447 11.2334 9.86689C11.2334 9.48912 11.3556 9.17801 11.6001 8.93356C11.8445 8.68912 12.1556 8.56689 12.5334 8.56689C12.9112 8.56689 13.2223 8.68912 13.4667 8.93356L19.6001 15.0669C19.7334 15.2002 19.8278 15.3447 19.8834 15.5002C19.939 15.6558 19.9667 15.8225 19.9667 16.0002C19.9667 16.178 19.939 16.3447 19.8834 16.5002C19.8278 16.6558 19.7334 16.8002 19.6001 16.9336L13.4667 23.0669C13.2223 23.3113 12.9112 23.4336 12.5334 23.4336C12.1556 23.4336 11.8445 23.3113 11.6001 23.0669C11.3556 22.8225 11.2334 22.5113 11.2334 22.1336C11.2334 21.7558 11.3556 21.4447 11.6001 21.2002L16.8001 16.0002Z" fill="#5A6472"/>
</g>
</g>
</svg>
