<svg width="32" height="32" viewBox="0 0 32 32" fill="none" xmlns="http://www.w3.org/2000/svg">
<mask id="mask0_316_14044" style="mask-type:alpha" maskUnits="userSpaceOnUse" x="0" y="0" width="32" height="32">
<rect x="32" y="32" width="32" height="32" transform="rotate(-180 32 32)" fill="#D9D9D9"/>
</mask>
<g mask="url(#mask0_316_14044)">
<path d="M15.1999 15.9998L20.3999 21.1998C20.6444 21.4442 20.7666 21.7553 20.7666 22.1331C20.7666 22.5109 20.6444 22.822 20.3999 23.0664C20.1555 23.3109 19.8444 23.4331 19.4666 23.4331C19.0888 23.4331 18.7777 23.3109 18.5333 23.0664L12.3999 16.9331C12.2666 16.7998 12.1722 16.6553 12.1166 16.4998C12.061 16.3442 12.0333 16.1775 12.0333 15.9998C12.0333 15.822 12.061 15.6553 12.1166 15.4998C12.1722 15.3442 12.2666 15.1998 12.3999 15.0664L18.5333 8.93311C18.7777 8.68866 19.0888 8.56644 19.4666 8.56644C19.8444 8.56644 20.1555 8.68866 20.3999 8.93311C20.6444 9.17755 20.7666 9.48866 20.7666 9.86644C20.7666 10.2442 20.6444 10.5553 20.3999 10.7998L15.1999 15.9998Z" fill="#101828"/>
</g>
</svg>
