<svg width="24" height="24" viewBox="0 0 24 24" fill="none" xmlns="http://www.w3.org/2000/svg">
<g id="Frame">
<path id="Vector" d="M12.5683 15.7051L17.4089 10.8636C17.8032 10.4702 17.8032 9.82676 17.4089 9.4325L17.2733 9.2953C17.0828 9.10631 16.8253 9.00026 16.557 9.00026C16.2886 9.00026 16.0311 9.10631 15.8406 9.2953L11.8523 13.2844L7.86246 9.29451C7.67224 9.10586 7.41519 9 7.14728 9C6.87937 9 6.62232 9.10586 6.4321 9.29451L6.29569 9.4325C5.90144 9.82676 5.90144 10.4702 6.29569 10.8644L11.1371 15.7051C11.3274 15.894 11.5846 16 11.8527 16C12.1208 16 12.378 15.894 12.5683 15.7051Z" fill="#1E1E1E"/>
</g>
</svg>
