<svg width="222" height="42" viewBox="0 0 222 42" fill="none" xmlns="http://www.w3.org/2000/svg">
<g id="Group">
<g id="Group_2">
<g id="Group_3">
<path id="Vector" d="M87.5713 23.9409C87.206 23.3333 86.6868 22.8334 86.01 22.4257C85.3293 22.0258 84.6986 21.6989 84.1102 21.4489C83.5257 21.199 82.8065 20.949 81.9682 20.699C81.2413 20.4721 80.6568 20.2837 80.2338 20.1453C79.8031 20.003 79.3185 19.8107 78.7801 19.5684C78.2417 19.3338 77.8341 19.0992 77.5534 18.88C77.2726 18.6531 77.0304 18.3801 76.8342 18.0455C76.6381 17.711 76.5381 17.3572 76.5381 16.9765C76.5381 16.1343 76.915 15.4382 77.688 14.8921C78.4533 14.346 79.4454 14.073 80.6491 14.073C82.0259 14.073 83.1103 14.4383 83.9141 15.1805C84.7178 15.915 85.1178 16.8918 85.1178 18.1186H87.7021C87.7021 16.6111 87.0867 15.4074 85.86 14.4999C84.6409 13.5923 83.0027 13.127 80.976 13.127C78.9763 13.127 77.3572 13.5577 76.1266 14.4229C74.8922 15.2805 74.2692 16.3996 74.2692 17.7725C74.2692 18.4686 74.4422 19.0916 74.7845 19.6415C75.1191 20.1953 75.6267 20.6798 76.292 21.0951C76.965 21.5105 77.6495 21.8527 78.3533 22.1335C79.057 22.4219 79.9223 22.7103 80.9529 23.0064C81.4759 23.1564 81.922 23.2949 82.2797 23.4295C82.6373 23.5564 83.0603 23.7409 83.5603 23.9755C84.0525 24.2024 84.4448 24.4447 84.7486 24.6793C85.0447 24.9216 85.3024 25.2254 85.5293 25.5869C85.7485 25.9522 85.8638 26.3444 85.8638 26.7752C85.8638 27.6827 85.4408 28.4326 84.5986 29.0249C83.7564 29.6094 82.6681 29.9017 81.326 29.9017C79.8723 29.9017 78.7148 29.5286 77.8495 28.7941C76.9919 28.0596 76.5612 27.0674 76.5612 25.833H74C74 27.3328 74.6422 28.5442 75.9151 29.4594C77.188 30.3824 78.884 30.8362 80.9991 30.8362C83.118 30.8362 84.8332 30.3901 86.1484 29.4864C87.4598 28.5865 88.1174 27.402 88.1174 25.9484C88.1135 25.2215 87.9328 24.5447 87.5713 23.9409Z" fill="#044949"/>
<path id="Vector_2" d="M101.531 19.8496C100.6 19.0074 99.358 18.592 97.8197 18.592C96.1545 18.592 94.8124 19.0689 93.7972 20.0303V12.0698H91.3975V30.6751H93.7972V23.6068C93.7972 22.3492 94.1086 21.334 94.7201 20.5687C95.3277 19.7957 96.143 19.4112 97.1506 19.4112C98.1581 19.4112 98.9695 19.7957 99.581 20.5687C100.196 21.334 100.496 22.3492 100.496 23.6068V30.6751H102.927V23.1607C102.931 21.7878 102.461 20.6841 101.531 19.8496Z" fill="#044949"/>
<path id="Vector_3" d="M116.002 19.6993C114.995 18.9648 113.641 18.5918 111.933 18.5918C110.299 18.5918 108.988 18.9187 108.011 19.5609C107.042 20.2031 106.55 21.0684 106.55 22.1375H108.884C108.884 21.3337 109.149 20.6761 109.68 20.1685C110.211 19.6609 110.914 19.4109 111.787 19.4109C112.764 19.4109 113.56 19.7224 114.172 20.3262C114.787 20.9415 115.087 21.7337 115.087 22.7105V24.2257C113.995 23.8603 112.83 23.6796 111.587 23.6796C109.953 23.6796 108.626 24.0219 107.619 24.7025C106.611 25.3909 106.104 26.2946 106.104 27.3983C106.104 28.4367 106.565 29.275 107.48 29.9057C108.396 30.5325 109.638 30.844 111.191 30.844C113.106 30.844 114.568 30.3903 115.583 29.4788L115.879 30.3941C116.06 30.5748 116.271 30.6671 116.521 30.6671H117.514V22.7066C117.517 21.4414 117.01 20.4339 116.002 19.6993ZM115.087 26.8561C115.087 27.8175 114.783 28.5828 114.172 29.1596C113.556 29.7442 112.749 30.0326 111.741 30.0326C110.78 30.0326 110.015 29.798 109.445 29.3289C108.876 28.8597 108.588 28.2213 108.588 27.4291C108.588 26.5523 108.922 25.8524 109.58 25.3217C110.238 24.791 111.111 24.5256 112.187 24.5256C113.445 24.5256 114.414 24.7525 115.087 25.2217V26.8561Z" fill="#044949"/>
<path id="Vector_4" d="M127.124 23.2342L131.485 18.7655H129.874L123.898 24.8686V12.0664H121.49V30.6755H123.898V26.5338L125.532 24.8532L129.501 30.6794H132.181L127.124 23.2342Z" fill="#044949"/>
<path id="Vector_5" d="M144.975 19.8496C144.037 19.0074 142.802 18.592 141.264 18.592C139.591 18.592 138.257 19.0689 137.241 20.0303V12.0698H134.842V30.6751H137.241V23.6068C137.241 22.3492 137.553 21.334 138.164 20.5687C138.772 19.7957 139.58 19.4112 140.595 19.4112C141.602 19.4112 142.414 19.7957 143.025 20.5687C143.633 21.334 143.941 22.3492 143.941 23.6068V30.6751H146.371V23.1607C146.375 21.7878 145.906 20.6841 144.975 19.8496Z" fill="#044949"/>
<path id="Vector_6" d="M156.374 13.3042V14.4694H163.046V30.675H165.577V14.4733H172.226V13.308H156.374V13.3042Z" fill="#044949"/>
<path id="Vector_7" d="M182.528 20.28C181.413 19.1533 179.952 18.5918 178.137 18.5918C176.318 18.5918 174.849 19.1533 173.729 20.28C172.614 21.403 172.057 22.8874 172.057 24.7179C172.057 26.56 172.618 28.0367 173.729 29.1558C174.849 30.2826 176.321 30.844 178.137 30.844C179.956 30.844 181.417 30.2826 182.528 29.1558C183.636 28.0367 184.186 26.5561 184.186 24.7179C184.19 22.8874 183.636 21.403 182.528 20.28ZM180.74 28.5674C180.075 29.5442 179.21 30.0288 178.133 30.0288C177.056 30.0288 176.187 29.5442 175.525 28.5674C174.868 27.5906 174.533 26.3023 174.533 24.6987C174.533 23.122 174.868 21.8491 175.525 20.8723C176.183 19.9032 177.056 19.4109 178.133 19.4109C179.21 19.4109 180.071 19.9032 180.74 20.8723C181.398 21.8491 181.732 23.122 181.732 24.6987C181.732 26.3023 181.402 27.5906 180.74 28.5674Z" fill="#044949"/>
<path id="Vector_8" d="M196.4 18.7651V26.0373C196.4 27.241 196.088 28.2101 195.484 28.9369C194.869 29.6637 194.054 30.029 193.023 30.029C192.016 30.029 191.212 29.6714 190.608 28.96C190.004 28.2485 189.7 27.2871 189.7 26.0603V18.7651H187.301V26.5064C187.301 27.8486 187.755 28.9061 188.674 29.6791C189.597 30.4598 190.816 30.8443 192.339 30.8443C194.285 30.8443 195.769 30.229 196.776 29.01L197.199 30.3752C197.357 30.5713 197.576 30.6713 197.842 30.6713H198.834V18.7651H196.4Z" fill="#044949"/>
<path id="Vector_9" d="M206.925 19.288C206.106 19.7495 205.487 20.3955 205.056 21.2185L204.391 19.0918C204.225 18.8726 204.014 18.765 203.772 18.765H202.779V30.6749H205.179V23.9566C205.179 22.9413 205.529 22.1222 206.21 21.4877C206.898 20.8531 207.733 20.534 208.709 20.534C209.102 20.534 209.444 20.6032 209.725 20.7532V18.5957C208.675 18.5919 207.744 18.8265 206.925 19.288Z" fill="#044949"/>
<path id="Vector_10" d="M220.766 25.1452C220.235 24.7799 219.197 24.3415 217.658 23.8262C217.589 23.8108 217.531 23.7954 217.478 23.78C217.416 23.7646 217.351 23.7339 217.266 23.7031C216.455 23.4377 215.843 23.2262 215.439 23.0686C215.032 22.9186 214.659 22.684 214.324 22.3802C213.982 22.0687 213.809 21.7149 213.809 21.2957C213.809 20.7342 214.059 20.2805 214.543 19.9305C215.028 19.5806 215.662 19.4075 216.443 19.4075C217.335 19.4075 218.054 19.6575 218.6 20.1497C219.147 20.6496 219.42 21.2919 219.42 22.0879H221.723C221.723 21.0265 221.254 20.1805 220.316 19.5421C219.37 18.9076 218.112 18.5884 216.543 18.5884C215.02 18.5884 213.801 18.8845 212.894 19.4652C211.986 20.0574 211.532 20.8419 211.532 21.8341C211.548 22.8109 212.071 23.6146 213.094 24.2415C213.578 24.5068 214.655 24.9299 216.32 25.5067C216.389 25.5221 216.493 25.5605 216.647 25.6067C217.124 25.7567 217.524 25.8951 217.835 26.0143C218.154 26.1374 218.47 26.2951 218.789 26.4758C219.116 26.6565 219.35 26.8758 219.508 27.1334C219.666 27.3834 219.743 27.6795 219.743 28.0102C219.743 28.6255 219.477 29.1101 218.939 29.4716C218.4 29.8369 217.689 30.0177 216.82 30.0177C215.859 30.0177 215.086 29.7677 214.501 29.2754C213.909 28.7755 213.617 28.1333 213.617 27.3372H211.282C211.282 28.3833 211.782 29.2216 212.774 29.8677C213.766 30.5176 215.078 30.8368 216.72 30.8368C218.32 30.8368 219.604 30.5253 220.562 29.9061C221.523 29.2908 222 28.4602 222 27.4141C222 26.4989 221.589 25.7336 220.766 25.1452Z" fill="#044949"/>
</g>
</g>
<g id="Group 1">
<path id="Vector_11" d="M39.9351 34.868C39.9351 34.895 39.9283 34.9153 39.9216 34.9424C39.6696 35.6104 38.9745 36.1211 35.868 35.9638C35.7597 35.9571 35.6566 35.9571 35.5551 35.9503L34.3291 37.5788L33.913 38.1437L32.6802 39.7925L31.2698 41.673H29.8933L32.6058 35.7524C30.957 35.6222 29.342 35.4734 28.2174 35.3703L26.9913 37.1138H26.0781L26.2422 36.5828L26.7055 35.0912L26.7799 34.8663L26.7055 34.6414L26.2422 33.1498L26.0781 32.6188H26.9913L28.2174 34.3623C29.342 34.2609 30.957 34.1104 32.6058 33.9802L29.8933 28.0596H31.2698L32.6802 29.9401L33.913 31.5889L34.3291 32.1538L35.5551 33.7823C35.6566 33.7755 35.7597 33.7688 35.868 33.7688C38.9745 33.6115 39.6696 34.1239 39.9216 34.7902C39.9283 34.8206 39.9351 34.8409 39.9351 34.868Z" fill="#044949"/>
<g id="Group_4">
<path id="Vector_12" d="M65.981 26.9469V26.9097C65.9709 26.7964 65.9608 26.6797 65.9506 26.5631C65.5972 23.3195 63.6625 20.191 60.6473 17.979C59.8153 17.3702 58.9054 16.8358 58.1022 16.3673L57.9686 16.2912C56.8693 15.6486 55.8564 15.0483 54.9516 14.3228C54.0384 13.5905 53.2859 12.6841 52.836 11.7777C52.7024 11.524 52.4437 11.3617 52.1562 11.3617C51.8569 11.3617 51.6066 11.5155 51.4764 11.7777C51.0367 12.6706 50.2808 13.5736 49.3574 14.3228C49.2712 14.3921 49.1782 14.4598 49.0902 14.5257L48.478 14.9756L48.2311 14.4361C47.1421 12.0381 45.3495 9.88362 43.0479 8.1942C42.0586 7.47548 40.9932 6.85146 39.9701 6.24604L39.8128 6.15641C38.607 5.44953 37.3573 4.72404 36.2462 3.82437C35.1369 2.93484 34.227 1.839 33.6808 0.736397C33.5472 0.489495 33.2851 0.327148 33.0044 0.327148C32.7118 0.327148 32.4514 0.491187 32.3212 0.73978C31.7749 1.839 30.8617 2.93484 29.7523 3.82437C28.6396 4.72404 27.3949 5.44953 26.1858 6.15641L26.0657 6.22913C25.0139 6.84469 23.9434 7.4721 22.9507 8.1942C20.6457 9.88362 18.8531 12.0381 17.7708 14.4361L17.5172 14.9756L16.905 14.5257C16.8187 14.4598 16.7325 14.3921 16.6412 14.3228C16.6107 14.2991 16.582 14.2721 16.5515 14.2467C15.6654 13.5144 14.9534 12.6418 14.5205 11.7794C14.3971 11.5155 14.14 11.3633 13.8407 11.3633C13.5616 11.3633 13.2945 11.5274 13.1676 11.7794C12.7144 12.6858 11.9652 13.5905 11.0487 14.3245C10.1422 15.05 9.12754 15.6503 8.05369 16.2794L7.89304 16.369C7.08976 16.8392 6.18163 17.3719 5.35468 17.9807C2.33435 20.1926 0.398022 23.3195 0.0513443 26.5614C0.0344332 26.6814 0.0242878 26.7981 0.0209056 26.9114C-0.13975 29.1792 0.629714 31.3219 2.18554 32.9808C3.76165 34.6635 5.98546 35.6291 8.28706 35.6291H22.5888C22.7951 35.6291 23.0048 35.5361 23.1553 35.3788C23.2991 35.2131 23.3684 35.0152 23.3481 34.7954C23.3075 34.4149 22.9456 34.1156 22.5161 34.1156H8.28706C6.40147 34.1156 4.58014 33.3224 3.29828 31.9442C2.03333 30.6014 1.39917 28.8562 1.51924 27.0383L1.53276 26.9385C1.53952 26.8556 1.54291 26.7778 1.55305 26.7186C1.85914 23.9013 3.56887 21.16 6.24251 19.2152C6.99506 18.6588 7.79495 18.1819 8.63374 17.6864L8.84344 17.5663C9.83951 16.9863 10.9692 16.3234 11.994 15.5015C12.5233 15.0753 13.0171 14.5917 13.4636 14.0556L13.8373 13.6058L14.2144 14.0556C14.644 14.5714 15.1378 15.0618 15.6907 15.5015C15.7635 15.559 15.8345 15.6148 15.9072 15.6672C16.1812 15.8803 16.4534 16.0799 16.746 16.2828L17.0318 16.4621L16.9557 16.7952C16.8255 17.3178 16.7359 17.8319 16.6885 18.3273C16.3012 21.8077 17.5983 25.3556 20.0758 27.593C21.1649 28.5687 22.7106 28.8782 24.1193 28.3962C25.2489 28.0039 26.1469 27.1431 26.5866 26.0388C27.0263 24.9261 26.9603 23.6831 26.404 22.6312C25.4654 20.8556 24.0584 19.2507 22.3368 17.9807C21.6976 17.5173 21.0211 17.0945 20.3582 16.7056C20.1215 16.5618 19.8847 16.4265 19.6513 16.2929L18.8227 15.8025L18.9884 15.4136C19.9405 13.1187 21.6164 11.0437 23.8351 9.42533C24.7653 8.74212 25.763 8.15361 26.7354 7.58709L26.8927 7.49746C28.1086 6.7855 29.4767 5.98899 30.696 5.00646C31.4249 4.42302 32.0624 3.77363 32.5985 3.08535L32.9688 2.62537L33.0027 2.65919L33.023 2.6389L33.3865 3.08535C33.9226 3.77533 34.5653 4.42471 35.2958 5.00646C36.5084 5.98899 37.8765 6.78212 39.0788 7.48732L39.2513 7.58709C40.2237 8.15361 41.2266 8.74212 42.1533 9.42533C44.372 11.0437 46.0428 13.1187 47.0034 15.4169L47.1641 15.8042L46.3422 16.2946C45.456 16.8003 44.5208 17.3533 43.655 17.9874C41.9301 19.2524 40.5247 20.8589 39.5913 22.6346C39.0349 23.6865 38.9655 24.9294 39.4052 26.0422C39.8415 27.1482 40.7412 28.0073 41.8759 28.3996C43.2779 28.8833 44.8303 28.5721 45.916 27.5963C48.3901 25.3573 49.6939 21.811 49.3067 18.3341C49.2559 17.8352 49.1629 17.3211 49.0395 16.802L48.9634 16.4654L49.2526 16.2828C49.6128 16.0291 49.9628 15.7738 50.3011 15.5032C50.8507 15.0635 51.3462 14.5748 51.774 14.0573L52.1579 13.6075L52.5316 14.0573C52.9713 14.5934 53.4668 15.077 53.9944 15.5032C55.0243 16.3268 56.1557 16.988 57.1551 17.5714L57.3547 17.6881C58.2002 18.1836 58.9934 18.6605 59.7527 19.2169C62.4246 21.1617 64.1327 23.9029 64.4388 26.7372C64.4489 26.7812 64.4557 26.8573 64.459 26.93L64.4692 27.0298C64.5893 28.8579 63.9636 30.6031 62.6969 31.9459C61.4117 33.3241 59.592 34.1173 57.7014 34.1173H43.4723C43.0462 34.1173 42.6826 34.4166 42.6471 34.7971C42.6234 35.0169 42.6911 35.2131 42.8399 35.3805C42.9904 35.5378 43.1933 35.6308 43.3996 35.6308H57.7014C60.0097 35.6308 62.2318 34.6652 63.8063 32.9825C65.3655 31.3202 66.1332 29.1792 65.981 26.9469ZM19.1406 17.7372C19.3638 17.8674 19.5972 18.0077 19.834 18.1498C20.3734 18.4728 20.9332 18.8296 21.4524 19.2118C22.9981 20.3381 24.2495 21.7671 25.0764 23.3415C25.4231 23.9909 25.4688 24.7739 25.1931 25.4791C24.9073 26.1859 24.3374 26.7254 23.6305 26.9605C23.3549 27.0569 23.064 27.1076 22.7816 27.1076C22.1626 27.1076 21.5623 26.881 21.0989 26.4684C19.0206 24.5895 17.8774 21.439 18.2004 18.444L18.2071 18.3882C18.2274 18.258 18.241 18.121 18.2646 17.9925L18.3712 17.2856L19.1406 17.7372ZM44.9132 26.4717H44.9064C44.4498 26.8844 43.8512 27.111 43.2238 27.111C42.9413 27.111 42.6538 27.0603 42.3748 26.9639C41.6679 26.7271 41.1031 26.1876 40.819 25.4841C40.54 24.7739 40.5822 23.9926 40.9357 23.3398C41.7559 21.7671 43.0141 20.3381 44.5597 19.2135C45.3021 18.6605 46.1358 18.1684 46.8715 17.7372L47.6376 17.2873L47.7441 17.9959C47.7644 18.1227 47.7847 18.2597 47.8033 18.3916L47.8067 18.4457C48.128 21.4407 46.9916 24.5929 44.9132 26.4717Z" fill="#044949"/>
</g>
</g>
</g>
</svg>
