<svg xmlns="http://www.w3.org/2000/svg" id="_Слой_2" data-name="Слой 2" viewBox="0 0 1716.59 768.11" width="100"><defs><style>.cls-1{fill:#c57204}.cls-2{fill:#121212}.cls-3{fill:#131313}.cls-4{fill:#feb303}.cls-6{fill:#002774}</style></defs><g id="_Слой_1-2" data-name="Слой 1"><path d="M330.26 146.29h-64.65c0-55.49-44.99-100.49-100.49-100.49S64.64 90.8 64.64 146.29H0l43.16-26.21-14.93-48.24 50.39-3.14 9.2-49.65 46.09 20.63L165.13 0l31.21 39.68 46.09-20.63 9.2 49.65 50.39 3.14-14.93 48.24 43.16 26.21Z" class="cls-4"/><path d="M255.04 146.29H75.22c0-49.65 40.25-89.91 89.91-89.91s89.91 40.26 89.91 89.91Z" class="cls-4"/><path d="M205.98 146.29h-81.7c0-22.55 18.29-40.84 40.85-40.84s40.85 18.29 40.85 40.84Z" class="cls-1"/><circle cx="165.13" cy="120.4" r="2.31" class="cls-3"/><circle cx="165.13" cy="140.01" r="2.31" class="cls-3"/><circle cx="143.29" cy="131.7" r="2.31" class="cls-3"/><circle cx="186.97" cy="131.7" r="2.31" class="cls-3"/><path d="M136.4 146.29h-4.63c0-1.28 1.04-2.31 2.32-2.31s2.31 1.03 2.31 2.31ZM198.5 146.29h-4.63c0-1.28 1.04-2.31 2.31-2.31s2.32 1.03 2.32 2.31Z" class="cls-3"/><path d="M.67 650.65c-.22.1-.45.2-.67.31v-29.14h271.2c-25.97 14.76-63.5 25.13-114.63 14.93-31.7-6.32-62.32-7.71-90.98-4.14-23.04 2.88-44.89 8.94-64.92 18.04Z" class="cls-6"/><path d="M330.27 621.82v15.7c-5.12 6.17-11.33 12.67-18.7 18.89-24.83 20.95-68.55 43.11-135.82 29.7-31.7-6.32-62.32-7.71-90.98-4.14-23.04 2.87-44.88 8.94-64.92 18.04-7.41 3.36-14.02 6.89-19.84 10.37v-41.25c2.22-1.12 4.53-2.22 6.93-3.3 29.5-13.32 78.96-26.34 147.12-12.76 29.46 5.87 57.19 5.86 82.43-.04 2.17-.51 4.37-1.07 6.53-1.67 20.83-5.81 39.91-15.75 56.76-29.54h30.5Z" class="cls-6"/><path d="M330.27 661v43.18c-.6.53-1.22 1.06-1.84 1.59-24.83 20.95-68.55 43.11-135.82 29.7-31.71-6.32-62.32-7.71-90.99-4.14-23.04 2.87-44.88 8.94-64.91 18.04-13.54 6.14-24.41 12.83-32.66 18.73H0v-38.48c7.02-4.69 15.73-9.75 26.1-14.44 29.5-13.32 78.96-26.34 147.12-12.76 29.46 5.87 57.19 5.86 82.43-.04 2.18-.51 4.37-1.07 6.53-1.67 21.73-6.07 41.57-16.62 58.95-31.36 3.25-2.76 6.29-5.56 9.14-8.36Z" class="cls-6"/><path d="M279.03 750.09c18.58-5.19 35.77-13.65 51.24-25.21v43.24H35.53a178.4 178.4 0 0 1 7.43-3.56c29.49-13.32 78.96-26.34 147.12-12.76 29.46 5.87 57.19 5.86 82.43-.04 2.17-.51 4.37-1.07 6.52-1.67Z" class="cls-6"/><path d="M330.26 164.72v328.33l-20.61 20.61-11.08 11.08-22.69 22.69v-79.1c0-23.52-4.78-46.63-13.89-68.6-.89-2.17-1.83-4.32-2.82-6.47-3.57-7.81-7.69-15.46-12.35-22.92-18.91-30.32-46.6-57.55-81.68-79.52-43.72 27.38-75.95 62.93-94.03 102.44-.98 2.15-1.93 4.3-2.82 6.47-9.11 21.97-13.89 45.08-13.89 68.6v60.06L0 582.79V164.72h330.26Z" class="cls-4"/><path d="m100.52 519.15-8.14-8.14 53.71-53.71 42.63 42.63-10.12 10.12-21.37-21.37-16.21 16.21-13.12-13.11-27.38 27.37z" class="cls-6"/><path d="M330.27 513.66v89.73H0l85.1-85.09 15.42 15.42 27.38-27.37 13.12 13.12 16.21-16.21 21.37 21.37 17.4-17.41 70.35 70.35 63.92-63.91z" class="cls-1"/><path d="M309.66 185.33v197.06h-11.07a216.913 216.913 0 0 0-6.52-13.62c-4.82-9.23-10.38-18.26-16.68-27.08-25.53-35.82-62.91-67.99-110.25-93.93-59.02 32.35-102.52 74.35-126.91 121.01-1.33 2.53-2.61 5.09-3.81 7.64-.94 1.99-1.84 3.98-2.72 5.98H20.62V185.33h289.05Z" style="fill:#d51c3b"/><path d="M489.75 694.93v8.43h-21.89v63.52h-9.04v-63.52h-21.89v-8.43h52.83ZM564.16 766.88l-16.44-28.16h-16.44v28.16h-8.94v-71.94h27.24c6.78 0 12.38 2.07 16.8 6.22s6.63 9.4 6.63 15.78c0 5-1.44 9.37-4.32 13.1-2.88 3.74-6.72 6.29-11.51 7.66l17.16 29.19h-10.18Zm-32.89-63.42v26.72h17.88c4.32 0 7.84-1.25 10.59-3.75 2.74-2.5 4.11-5.7 4.11-9.61s-1.37-7.11-4.11-9.61c-2.74-2.5-6.27-3.75-10.59-3.75h-17.88ZM658.52 766.88l-7.19-17.27H616.8l-7.09 17.27h-9.56l29.39-71.94h8.43l30.32 71.94h-9.76Zm-24.57-59.51-13.77 34.02h27.75l-13.98-34.02ZM742.79 694.93h9.87l-28.68 71.94h-8.33l-29.09-71.94h9.97l23.33 58.38 22.92-58.38ZM794.18 758.25h32.89v8.63h-41.83v-71.94h40.7v8.53h-31.76v22.3h29.09v8.33h-29.09v24.15ZM871.57 758.45h31.66v8.43h-40.6v-71.94h8.94v63.52ZM1027.38 766.88l-7.19-17.27h-34.53l-7.09 17.27h-9.56l29.39-71.94h8.43l30.32 71.94h-9.76Zm-24.56-59.51-13.77 34.02h27.75l-13.98-34.02ZM1117.83 694.93h8.84v71.94h-7.61l-41.01-56.12v56.12h-8.74v-71.94h8.12l40.39 55.5v-55.5ZM1190.8 694.93c10.55 0 19.27 3.39 26.16 10.18 6.89 6.78 10.33 15.38 10.33 25.8s-3.44 19.01-10.33 25.8c-6.89 6.78-15.61 10.17-26.16 10.17h-23.95v-71.94h23.95Zm-.31 63.52c8.08 0 14.7-2.6 19.84-7.81 5.14-5.21 7.71-11.78 7.71-19.73 0-5.28-1.17-10-3.49-14.18-2.33-4.18-5.59-7.45-9.76-9.82-4.18-2.36-8.94-3.55-14.29-3.55h-14.7v55.09h14.7ZM1351.96 694.93v8.43h-21.89v63.52h-9.04v-63.52h-21.89v-8.43h52.83ZM1440.86 757.53c-7.13 7.06-16.12 10.59-26.98 10.59s-19.85-3.53-26.98-10.59c-7.13-7.06-10.69-15.91-10.69-26.57s3.56-19.53 10.69-26.62c7.13-7.09 16.12-10.64 26.98-10.64s19.85 3.53 26.98 10.59c7.13 7.06 10.69 15.93 10.69 26.62s-3.56 19.56-10.69 26.62Zm-47.33-6.38c5.38 5.41 12.16 8.12 20.35 8.12s14.97-2.69 20.35-8.07c5.38-5.38 8.07-12.14 8.07-20.3s-2.69-14.92-8.07-20.3c-5.38-5.38-12.16-8.07-20.35-8.07s-14.97 2.71-20.35 8.12c-5.38 5.41-8.07 12.16-8.07 20.25s2.69 14.84 8.07 20.25ZM1514.35 768.11c-8.15 0-14.92-2.64-20.3-7.91-5.38-5.28-8.07-11.99-8.07-20.14v-45.12h9.15v44.5c0 5.89 1.78 10.67 5.34 14.34 3.56 3.67 8.19 5.5 13.87 5.5s10.11-1.83 13.67-5.5c3.56-3.66 5.34-8.44 5.34-14.34v-44.5h9.15v45.12c0 8.15-2.67 14.87-8.02 20.14-5.34 5.28-12.06 7.91-20.14 7.91ZM1623.7 766.88l-16.44-28.16h-16.44v28.16h-8.94v-71.94h27.24c6.78 0 12.38 2.07 16.8 6.22s6.63 9.4 6.63 15.78c0 5-1.44 9.37-4.32 13.1-2.88 3.74-6.72 6.29-11.51 7.66l17.16 29.19h-10.17Zm-32.89-63.42v26.72h17.88c4.32 0 7.84-1.25 10.59-3.75 2.74-2.5 4.11-5.7 4.11-9.61s-1.37-7.11-4.11-9.61c-2.74-2.5-6.27-3.75-10.59-3.75h-17.88ZM1689.99 767.8c-7.95 0-14.36-2.09-19.22-6.27-4.87-4.18-7.3-9.8-7.3-16.86h9.15c0 4.39 1.61 7.86 4.83 10.43 3.22 2.57 7.36 3.85 12.44 3.85 3.01 0 5.74-.5 8.17-1.49 2.43-.99 4.38-2.45 5.86-4.37 1.47-1.92 2.21-4.11 2.21-6.58 0-1.16-.19-2.24-.57-3.24-.38-.99-.82-1.83-1.34-2.52-.51-.68-1.28-1.35-2.31-2-1.03-.65-1.92-1.16-2.67-1.54-.76-.38-1.9-.8-3.44-1.28s-2.74-.82-3.6-1.03c-.86-.21-2.18-.51-3.96-.93-2.12-.55-3.75-.96-4.88-1.23s-2.66-.74-4.57-1.39c-1.92-.65-3.41-1.27-4.47-1.85-1.06-.58-2.3-1.39-3.7-2.42-1.41-1.03-2.47-2.12-3.19-3.29-.72-1.16-1.34-2.59-1.85-4.27-.51-1.68-.77-3.51-.77-5.5 0-6.17 2.21-11.05 6.63-14.65 4.42-3.6 10.36-5.4 17.83-5.4s13.34 1.92 17.63 5.76c4.28 3.84 6.42 9.01 6.42 15.52h-8.94c0-3.91-1.42-6.99-4.27-9.25-2.84-2.26-6.49-3.39-10.95-3.39s-8.21.99-11.05 2.98-4.27 4.66-4.27 8.02c0 1.1.17 2.11.51 3.03.34.92.77 1.73 1.28 2.42s1.27 1.34 2.26 1.95c.99.62 1.87 1.11 2.62 1.49.75.38 1.87.79 3.34 1.23 1.47.45 2.65.77 3.55.98.89.21 2.19.53 3.91.98 1.71.45 3 .77 3.85.98.86.21 2.09.55 3.7 1.03 1.61.48 2.86.91 3.75 1.28.89.38 2 .89 3.34 1.54 1.34.65 2.38 1.32 3.13 2 .75.69 1.59 1.51 2.52 2.47.93.96 1.61 1.99 2.06 3.08.44 1.1.84 2.36 1.18 3.8.34 1.44.51 2.95.51 4.52 0 6.65-2.38 11.87-7.14 15.67-4.76 3.8-10.84 5.7-18.24 5.7Z" class="cls-2"/><path d="M480.1 317.67h72.76v36.77h-112.4V164.85h109.53v36.51H480.1v39.38h63.11v35.73H480.1v41.2ZM711.15 354.44l-16.43-38.34h-72.76l-16.17 38.34h-41.73l75.11-189.59h37.29l77.45 189.59h-42.77Zm-52.94-137.96-23.73 65.2h47.72l-23.99-65.2ZM826.93 354.44c-21.21 0-38.29-5.61-51.24-16.82-12.95-11.21-19.43-26.56-19.43-46.03h39.9c0 4.35.82 8.21 2.48 11.61 1.65 3.39 3.91 6.13 6.78 8.21 2.87 2.09 6.13 3.65 9.78 4.69 3.65 1.04 7.47 1.56 11.47 1.56 7.99 0 14.91-1.91 20.73-5.74 5.82-3.82 8.74-9.04 8.74-15.65 0-2.78-.7-5.26-2.09-7.43s-3-3.91-4.82-5.22c-1.83-1.3-4.61-2.65-8.34-4.04-3.74-1.39-6.91-2.43-9.52-3.13-2.61-.69-6.52-1.65-11.73-2.87-4.17-1.04-7.3-1.83-9.39-2.35-2.09-.52-5.17-1.39-9.26-2.61-4.09-1.21-7.22-2.3-9.39-3.26-2.18-.95-5-2.3-8.48-4.04-3.48-1.74-6.17-3.48-8.08-5.22-1.92-1.74-4.04-3.91-6.39-6.52-2.35-2.61-4.13-5.35-5.35-8.21-1.22-2.87-2.26-6.17-3.13-9.91-.87-3.74-1.3-7.69-1.3-11.87 0-17.38 5.91-30.86 17.73-40.42 11.82-9.56 27.99-14.34 48.51-14.34s36.81 5.22 48.38 15.65c11.56 10.43 17.34 24.77 17.34 43.03h-39.12c0-7.47-2.65-13.17-7.95-17.08-5.31-3.91-11.87-5.87-19.69-5.87-6.96 0-13 1.48-18.12 4.43-5.13 2.96-7.69 7.22-7.69 12.78 0 2.61.65 4.91 1.96 6.91 1.3 2 2.82 3.65 4.56 4.95 1.74 1.3 4.43 2.61 8.08 3.91 3.65 1.3 6.74 2.26 9.26 2.87 2.52.61 6.3 1.52 11.34 2.74 5.56 1.39 9.73 2.48 12.52 3.26 2.78.78 6.78 2.09 12 3.91 5.22 1.83 9.26 3.61 12.13 5.35 2.87 1.74 6.21 4.04 10.04 6.91 3.82 2.87 6.74 6 8.74 9.39 2 3.39 3.74 7.48 5.22 12.26 1.48 4.78 2.22 9.95 2.22 15.52 0 12.69-3.22 23.56-9.65 32.6-6.43 9.04-14.73 15.65-24.9 19.82-10.17 4.17-21.78 6.26-34.81 6.26ZM1050.43 164.85v36.77h-50.85v152.82h-39.64V201.62h-50.59v-36.77h141.08ZM1250.83 354.31l-16.43-38.34h-72.76l-16.17 38.34h-41.73l75.11-189.59h37.29l77.45 189.59h-42.77Zm-52.94-137.96-23.73 65.2h47.72l-23.99-65.2ZM1673.82 354.31l-16.43-38.34h-72.76l-16.17 38.34h-41.73l75.11-189.59h37.29l77.45 189.59h-42.77Zm-52.94-137.96-23.73 65.2h47.72l-23.99-65.2ZM1366.62 354.44c-21.21 0-38.29-5.61-51.24-16.82-12.95-11.21-19.43-26.56-19.43-46.03h39.9c0 4.35.82 8.21 2.48 11.61 1.65 3.39 3.91 6.13 6.78 8.21 2.87 2.09 6.13 3.65 9.78 4.69 3.65 1.04 7.47 1.56 11.47 1.56 7.99 0 14.91-1.91 20.73-5.74 5.82-3.82 8.74-9.04 8.74-15.65 0-2.78-.7-5.26-2.09-7.43s-3-3.91-4.82-5.22c-1.83-1.3-4.61-2.65-8.34-4.04-3.74-1.39-6.91-2.43-9.52-3.13-2.61-.69-6.52-1.65-11.73-2.87-4.17-1.04-7.3-1.83-9.39-2.35-2.09-.52-5.17-1.39-9.26-2.61-4.09-1.21-7.22-2.3-9.39-3.26-2.18-.95-5-2.3-8.48-4.04-3.48-1.74-6.17-3.48-8.08-5.22-1.92-1.74-4.04-3.91-6.39-6.52-2.35-2.61-4.13-5.35-5.35-8.21-1.22-2.87-2.26-6.17-3.13-9.91-.87-3.74-1.3-7.69-1.3-11.87 0-17.38 5.91-30.86 17.73-40.42 11.82-9.56 27.99-14.34 48.51-14.34s36.81 5.22 48.38 15.65c11.56 10.43 17.34 24.77 17.34 43.03h-39.12c0-7.47-2.65-13.17-7.95-17.08-5.31-3.91-11.87-5.87-19.69-5.87-6.96 0-13 1.48-18.12 4.43-5.13 2.96-7.69 7.22-7.69 12.78 0 2.61.65 4.91 1.96 6.91 1.3 2 2.82 3.65 4.56 4.95 1.74 1.3 4.43 2.61 8.08 3.91 3.65 1.3 6.74 2.26 9.26 2.87 2.52.61 6.3 1.52 11.34 2.74 5.56 1.39 9.73 2.48 12.52 3.26 2.78.78 6.78 2.09 12 3.91 5.22 1.83 9.26 3.61 12.13 5.35 2.87 1.74 6.21 4.04 10.04 6.91 3.82 2.87 6.74 6 8.74 9.39 2 3.39 3.74 7.48 5.22 12.26 1.48 4.78 2.22 9.95 2.22 15.52 0 12.69-3.22 23.56-9.65 32.6-6.43 9.04-14.73 15.65-24.9 19.82-10.17 4.17-21.78 6.26-34.81 6.26ZM1467.54 354.31V164.72h39.64v189.59h-39.64ZM510.61 418.1c18.43 0 33.81 5.96 46.16 17.86 12.34 11.91 18.52 26.86 18.52 44.85s-6.17 36.86-18.52 48.77c-12.35 11.91-27.73 17.86-46.16 17.86H480.1v61.02h-39.64V418.09h70.15Zm-1.57 92.84c7.82 0 14.12-2.43 18.91-7.3 4.78-4.87 7.17-15.04 7.17-22.69s-2.39-13.95-7.17-18.91c-4.78-4.95-11.08-7.43-18.91-7.43h-28.95v56.33h28.95ZM689.24 608.47c-27.82 0-50.98-9.08-69.5-27.25-18.52-18.17-27.77-40.81-27.77-67.93s9.26-49.76 27.77-67.93c18.52-18.17 41.68-27.25 69.5-27.25 18.25 0 34.81 4.13 49.68 12.39 14.86 8.26 26.47 19.65 34.81 34.16 8.34 14.52 12.52 30.73 12.52 48.64 0 27.3-9.22 49.99-27.64 68.06-18.43 18.08-41.55 27.12-69.37 27.12Zm0-37.29c10.78 0 20.51-2.48 29.21-7.43 8.69-4.95 15.52-11.87 20.47-20.73 4.95-8.87 7.43-18.78 7.43-29.73 0-16.51-5.44-30.29-16.3-41.33-10.87-11.04-24.43-16.56-40.68-16.56s-29.9 5.52-40.94 16.56-16.56 24.82-16.56 41.33 5.52 30.3 16.56 41.33c11.04 11.04 24.64 16.56 40.81 16.56ZM817.29 608.47V418.1h39.64v190.37h-39.64ZM1014.44 418.1h38.6v190.37h-32.86L937.51 490.6v117.87h-38.86V418.1h35.73l80.06 115.27V418.1ZM1220.72 418.1v36.77h-50.85v153.6h-39.64v-153.6h-50.59V418.1h141.08Z" class="cls-6"/></g></svg>