<svg width="222" height="42" viewBox="0 0 222 42" fill="none" xmlns="http://www.w3.org/2000/svg">
<g id="Group">
<g id="Group_2">
<g id="Group_3">
<path id="Vector" d="M87.5713 23.6142C87.206 23.0066 86.6868 22.5067 86.01 22.099C85.3293 21.6991 84.6986 21.3722 84.1102 21.1222C83.5257 20.8723 82.8065 20.6223 81.9682 20.3723C81.2413 20.1454 80.6568 19.957 80.2338 19.8186C79.8031 19.6763 79.3185 19.484 78.7801 19.2417C78.2417 19.0071 77.8341 18.7725 77.5534 18.5533C77.2726 18.3264 77.0304 18.0534 76.8342 17.7188C76.6381 17.3843 76.5381 17.0305 76.5381 16.6497C76.5381 15.8075 76.915 15.1115 77.688 14.5654C78.4533 14.0193 79.4454 13.7463 80.6491 13.7463C82.0259 13.7463 83.1103 14.1116 83.9141 14.8538C84.7178 15.5883 85.1178 16.5651 85.1178 17.7919H87.7021C87.7021 16.2844 87.0867 15.0807 85.86 14.1731C84.6409 13.2656 83.0027 12.8002 80.976 12.8002C78.9763 12.8002 77.3572 13.231 76.1266 14.0962C74.8922 14.9538 74.2692 16.0729 74.2692 17.4458C74.2692 18.1419 74.4422 18.7649 74.7845 19.3148C75.1191 19.8686 75.6267 20.3531 76.292 20.7684C76.965 21.1838 77.6495 21.526 78.3533 21.8068C79.057 22.0952 79.9223 22.3836 80.9529 22.6797C81.4759 22.8297 81.922 22.9682 82.2797 23.1027C82.6373 23.2297 83.0603 23.4142 83.5603 23.6488C84.0525 23.8757 84.4448 24.118 84.7486 24.3526C85.0447 24.5949 85.3024 24.8987 85.5293 25.2602C85.7485 25.6255 85.8638 26.0177 85.8638 26.4485C85.8638 27.356 85.4408 28.1059 84.5986 28.6982C83.7564 29.2827 82.6681 29.575 81.326 29.575C79.8723 29.575 78.7148 29.2019 77.8495 28.4674C76.9919 27.7329 76.5612 26.7407 76.5612 25.5063H74C74 27.0061 74.6422 28.2175 75.9151 29.1327C77.188 30.0557 78.884 30.5095 80.9991 30.5095C83.118 30.5095 84.8332 30.0634 86.1484 29.1596C87.4598 28.2598 88.1174 27.0753 88.1174 25.6216C88.1135 24.8948 87.9328 24.218 87.5713 23.6142Z" fill="white"/>
<path id="Vector_2" d="M101.531 19.5226C100.6 18.6804 99.358 18.2651 97.8197 18.2651C96.1545 18.2651 94.8124 18.7419 93.7972 19.7033V11.7428H91.3975V30.3481H93.7972V23.2798C93.7972 22.0223 94.1086 21.007 94.7201 20.2417C95.3277 19.4688 96.143 19.0842 97.1506 19.0842C98.1581 19.0842 98.9695 19.4688 99.581 20.2417C100.196 21.007 100.496 22.0223 100.496 23.2798V30.3481H102.927V22.8337C102.931 21.4608 102.461 20.3571 101.531 19.5226Z" fill="white"/>
<path id="Vector_3" d="M116.002 19.3725C114.995 18.638 113.641 18.265 111.933 18.265C110.299 18.265 108.988 18.5919 108.011 19.2341C107.042 19.8763 106.55 20.7416 106.55 21.8107H108.884C108.884 21.0069 109.149 20.3493 109.68 19.8417C110.211 19.3341 110.914 19.0841 111.787 19.0841C112.764 19.0841 113.56 19.3956 114.172 19.9994C114.787 20.6147 115.087 21.4069 115.087 22.3837V23.8989C113.995 23.5335 112.83 23.3528 111.587 23.3528C109.953 23.3528 108.626 23.695 107.619 24.3757C106.611 25.0641 106.104 25.9678 106.104 27.0715C106.104 28.1098 106.565 28.9482 107.48 29.5789C108.396 30.2057 109.638 30.5172 111.191 30.5172C113.106 30.5172 114.568 30.0634 115.583 29.152L115.879 30.0673C116.06 30.248 116.271 30.3403 116.521 30.3403H117.514V22.3798C117.517 21.1146 117.01 20.107 116.002 19.3725ZM115.087 26.5293C115.087 27.4907 114.783 28.256 114.172 28.8328C113.556 29.4174 112.749 29.7058 111.741 29.7058C110.78 29.7058 110.015 29.4712 109.445 29.002C108.876 28.5329 108.588 27.8945 108.588 27.1023C108.588 26.2255 108.922 25.5256 109.58 24.9949C110.238 24.4642 111.111 24.1988 112.187 24.1988C113.445 24.1988 114.414 24.4257 115.087 24.8949V26.5293Z" fill="white"/>
<path id="Vector_4" d="M127.124 22.9072L131.485 18.4385H129.874L123.898 24.5416V11.7394H121.49V30.3485H123.898V26.2067L125.532 24.5262L129.501 30.3523H132.181L127.124 22.9072Z" fill="white"/>
<path id="Vector_5" d="M144.975 19.5226C144.037 18.6804 142.802 18.2651 141.264 18.2651C139.591 18.2651 138.257 18.7419 137.241 19.7033V11.7428H134.842V30.3481H137.241V23.2798C137.241 22.0223 137.553 21.007 138.164 20.2417C138.772 19.4688 139.58 19.0842 140.595 19.0842C141.602 19.0842 142.414 19.4688 143.025 20.2417C143.633 21.007 143.941 22.0223 143.941 23.2798V30.3481H146.371V22.8337C146.375 21.4608 145.906 20.3571 144.975 19.5226Z" fill="white"/>
<path id="Vector_6" d="M156.374 12.9774V14.1427H163.046V30.3482H165.577V14.1465H172.226V12.9813H156.374V12.9774Z" fill="white"/>
<path id="Vector_7" d="M182.528 19.9532C181.413 18.8264 179.952 18.265 178.137 18.265C176.318 18.265 174.849 18.8264 173.729 19.9532C172.614 21.0761 172.057 22.5606 172.057 24.3911C172.057 26.2332 172.618 27.7099 173.729 28.829C174.849 29.9557 176.321 30.5172 178.137 30.5172C179.956 30.5172 181.417 29.9557 182.528 28.829C183.636 27.7099 184.186 26.2293 184.186 24.3911C184.19 22.5606 183.636 21.0761 182.528 19.9532ZM180.74 28.2406C180.075 29.2174 179.21 29.7019 178.133 29.7019C177.056 29.7019 176.187 29.2174 175.525 28.2406C174.868 27.2638 174.533 25.9755 174.533 24.3719C174.533 22.7951 174.868 21.5222 175.525 20.5454C176.183 19.5763 177.056 19.0841 178.133 19.0841C179.21 19.0841 180.071 19.5763 180.74 20.5454C181.398 21.5222 181.732 22.7951 181.732 24.3719C181.732 25.9755 181.402 27.2638 180.74 28.2406Z" fill="white"/>
<path id="Vector_8" d="M196.4 18.4384V25.7105C196.4 26.9142 196.088 27.8833 195.484 28.6102C194.869 29.337 194.054 29.7023 193.023 29.7023C192.016 29.7023 191.212 29.3447 190.608 28.6332C190.004 27.9218 189.7 26.9604 189.7 25.7336V18.4384H187.301V26.1797C187.301 27.5218 187.755 28.5794 188.674 29.3524C189.597 30.133 190.816 30.5176 192.339 30.5176C194.285 30.5176 195.769 29.9023 196.776 28.6832L197.199 30.0484C197.357 30.2445 197.576 30.3445 197.842 30.3445H198.834V18.4384H196.4Z" fill="white"/>
<path id="Vector_9" d="M206.925 18.9613C206.106 19.4228 205.487 20.0688 205.056 20.8918L204.391 18.7652C204.225 18.5459 204.014 18.4383 203.772 18.4383H202.779V30.3482H205.179V23.6299C205.179 22.6146 205.529 21.7955 206.21 21.161C206.898 20.5265 207.733 20.2073 208.709 20.2073C209.102 20.2073 209.444 20.2765 209.725 20.4265V18.2691C208.675 18.2652 207.744 18.4998 206.925 18.9613Z" fill="white"/>
<path id="Vector_10" d="M220.766 24.8183C220.235 24.453 219.197 24.0146 217.658 23.4993C217.589 23.4839 217.531 23.4685 217.478 23.4531C217.416 23.4378 217.351 23.407 217.266 23.3762C216.455 23.1109 215.843 22.8994 215.439 22.7417C215.032 22.5917 214.659 22.3571 214.324 22.0533C213.982 21.7418 213.809 21.388 213.809 20.9688C213.809 20.4074 214.059 19.9536 214.543 19.6036C215.028 19.2537 215.662 19.0806 216.443 19.0806C217.335 19.0806 218.054 19.3306 218.6 19.8228C219.147 20.3228 219.42 20.965 219.42 21.761H221.723C221.723 20.6996 221.254 19.8536 220.316 19.2152C219.37 18.5807 218.112 18.2615 216.543 18.2615C215.02 18.2615 213.801 18.5576 212.894 19.1383C211.986 19.7305 211.532 20.5151 211.532 21.5072C211.548 22.484 212.071 23.2878 213.094 23.9146C213.578 24.18 214.655 24.603 216.32 25.1798C216.389 25.1952 216.493 25.2337 216.647 25.2798C217.124 25.4298 217.524 25.5682 217.835 25.6875C218.154 25.8105 218.47 25.9682 218.789 26.1489C219.116 26.3297 219.35 26.5489 219.508 26.8065C219.666 27.0565 219.743 27.3526 219.743 27.6833C219.743 28.2987 219.477 28.7832 218.939 29.1447C218.4 29.51 217.689 29.6908 216.82 29.6908C215.859 29.6908 215.086 29.4408 214.501 28.9486C213.909 28.4486 213.617 27.8064 213.617 27.0104H211.282C211.282 28.0564 211.782 28.8947 212.774 29.5408C213.766 30.1907 215.078 30.5099 216.72 30.5099C218.32 30.5099 219.604 30.1984 220.562 29.5793C221.523 28.9639 222 28.1333 222 27.0873C222 26.172 221.589 25.4067 220.766 24.8183Z" fill="white"/>
</g>
</g>
<g id="Group 1">
<path id="Vector_11" d="M39.9351 34.5408C39.9351 34.5679 39.9283 34.5882 39.9216 34.6153C39.6696 35.2832 38.9745 35.794 35.868 35.6367C35.7597 35.6299 35.6566 35.6299 35.5551 35.6232L34.3291 37.2517L33.913 37.8165L32.6802 39.4654L31.2698 41.3459H29.8933L32.6058 35.4253C30.957 35.2951 29.342 35.1463 28.2174 35.0431L26.9913 36.7866H26.0781L26.2422 36.2556L26.7055 34.7641L26.7799 34.5391L26.7055 34.3142L26.2422 32.8227L26.0781 32.2917H26.9913L28.2174 34.0352C29.342 33.9337 30.957 33.7832 32.6058 33.653L29.8933 27.7324H31.2698L32.6802 29.6129L33.913 31.2618L34.3291 31.8266L35.5551 33.4551C35.6566 33.4484 35.7597 33.4416 35.868 33.4416C38.9745 33.2843 39.6696 33.7968 39.9216 34.4631C39.9283 34.4935 39.9351 34.5138 39.9351 34.5408Z" fill="white"/>
<g id="Group_4">
<path id="Vector_12" d="M65.981 26.6198V26.5826C65.9709 26.4693 65.9608 26.3526 65.9506 26.2359C65.5972 22.9924 63.6625 19.8638 60.6473 17.6518C59.8153 17.043 58.9054 16.5086 58.1022 16.0402L57.9686 15.9641C56.8693 15.3215 55.8564 14.7211 54.9516 13.9956C54.0384 13.2634 53.2859 12.357 52.836 11.4505C52.7024 11.1969 52.4437 11.0345 52.1562 11.0345C51.8569 11.0345 51.6066 11.1884 51.4764 11.4505C51.0367 12.3434 50.2808 13.2465 49.3574 13.9956C49.2712 14.065 49.1782 14.1326 49.0902 14.1986L48.478 14.6484L48.2311 14.1089C47.1421 11.711 45.3495 9.55648 43.0479 7.86705C42.0586 7.14833 40.9932 6.52431 39.9701 5.91889L39.8128 5.82926C38.607 5.12238 37.3573 4.39689 36.2462 3.49722C35.1369 2.60769 34.227 1.51185 33.6808 0.409249C33.5472 0.162346 33.2851 0 33.0044 0C32.7118 0 32.4514 0.164038 32.3212 0.412632C31.7749 1.51185 30.8617 2.60769 29.7523 3.49722C28.6396 4.39689 27.3949 5.12238 26.1858 5.82926L26.0657 5.90198C25.0139 6.51755 23.9434 7.14495 22.9507 7.86705C20.6457 9.55648 18.8531 11.711 17.7708 14.1089L17.5172 14.6484L16.905 14.1986C16.8187 14.1326 16.7325 14.065 16.6412 13.9956C16.6107 13.972 16.582 13.9449 16.5515 13.9195C15.6654 13.1873 14.9534 12.3147 14.5205 11.4522C14.3971 11.1884 14.14 11.0362 13.8407 11.0362C13.5616 11.0362 13.2945 11.2002 13.1676 11.4522C12.7144 12.3586 11.9652 13.2634 11.0487 13.9973C10.1422 14.7228 9.12754 15.3232 8.05369 15.9523L7.89304 16.0419C7.08976 16.512 6.18163 17.0447 5.35468 17.6535C2.33435 19.8655 0.398022 22.9924 0.0513443 26.2342C0.0344332 26.3543 0.0242878 26.471 0.0209056 26.5843C-0.13975 28.8521 0.629714 30.9947 2.18554 32.6537C3.76165 34.3363 5.98546 35.302 8.28706 35.302H22.5888C22.7951 35.302 23.0048 35.209 23.1553 35.0517C23.2991 34.886 23.3684 34.6881 23.3481 34.4683C23.3075 34.0877 22.9456 33.7884 22.5161 33.7884H8.28706C6.40147 33.7884 4.58014 32.9953 3.29828 31.617C2.03333 30.2743 1.39917 28.5291 1.51924 26.7111L1.53276 26.6113C1.53952 26.5285 1.54291 26.4507 1.55305 26.3915C1.85914 23.5741 3.56887 20.8328 6.24251 18.888C6.99506 18.3317 7.79495 17.8548 8.63374 17.3593L8.84344 17.2392C9.83951 16.6591 10.9692 15.9962 11.994 15.1743C12.5233 14.7482 13.0171 14.2645 13.4636 13.7284L13.8373 13.2786L14.2144 13.7284C14.644 14.2442 15.1378 14.7347 15.6907 15.1743C15.7635 15.2318 15.8345 15.2877 15.9072 15.3401C16.1812 15.5532 16.4534 15.7527 16.746 15.9556L17.0318 16.1349L16.9557 16.4681C16.8255 16.9906 16.7359 17.5047 16.6885 18.0002C16.3012 21.4805 17.5983 25.0285 20.0758 27.2658C21.1649 28.2416 22.7106 28.5511 24.1193 28.0691C25.2489 27.6767 26.1469 26.816 26.5866 25.7117C27.0263 24.5989 26.9603 23.3559 26.404 22.3041C25.4654 20.5284 24.0584 18.9235 22.3368 17.6535C21.6976 17.1902 21.0211 16.7674 20.3582 16.3784C20.1215 16.2347 19.8847 16.0994 19.6513 15.9658L18.8227 15.4754L18.9884 15.0864C19.9405 12.7916 21.6164 10.7166 23.8351 9.09818C24.7653 8.41498 25.763 7.82647 26.7354 7.25994L26.8927 7.17031C28.1086 6.45836 29.4767 5.66184 30.696 4.67931C31.4249 4.09587 32.0624 3.44649 32.5985 2.7582L32.9688 2.29822L33.0027 2.33204L33.023 2.31175L33.3865 2.7582C33.9226 3.44818 34.5653 4.09756 35.2958 4.67931C36.5084 5.66184 37.8765 6.45497 39.0788 7.16017L39.2513 7.25994C40.2237 7.82647 41.2266 8.41498 42.1533 9.09818C44.372 10.7166 46.0428 12.7916 47.0034 15.0898L47.1641 15.4771L46.3422 15.9675C45.456 16.4731 44.5208 17.0261 43.655 17.6603C41.9301 18.9252 40.5247 20.5318 39.5913 22.3075C39.0349 23.3593 38.9655 24.6023 39.4052 25.7151C39.8415 26.821 40.7412 27.6801 41.8759 28.0725C43.2779 28.5561 44.8303 28.245 45.916 27.2692C48.3901 25.0302 49.6939 21.4839 49.3067 18.007C49.2559 17.5081 49.1629 16.994 49.0395 16.4748L48.9634 16.1383L49.2526 15.9556C49.6128 15.702 49.9628 15.4466 50.3011 15.176C50.8507 14.7364 51.3462 14.2476 51.774 13.7301L52.1579 13.2803L52.5316 13.7301C52.9713 14.2662 53.4668 14.7499 53.9944 15.176C55.0243 15.9996 56.1557 16.6608 57.1551 17.2443L57.3547 17.361C58.2002 17.8565 58.9934 18.3333 59.7527 18.8897C62.4246 20.8345 64.1327 23.5758 64.4388 26.4101C64.4489 26.4541 64.4557 26.5302 64.459 26.6029L64.4692 26.7027C64.5893 28.5308 63.9636 30.276 62.6969 31.6187C61.4117 32.997 59.592 33.7901 57.7014 33.7901H43.4723C43.0462 33.7901 42.6826 34.0894 42.6471 34.4699C42.6234 34.6898 42.6911 34.886 42.8399 35.0534C42.9904 35.2106 43.1933 35.3037 43.3996 35.3037H57.7014C60.0097 35.3037 62.2318 34.338 63.8063 32.6554C65.3655 30.993 66.1332 28.8521 65.981 26.6198ZM19.1406 17.41C19.3638 17.5402 19.5972 17.6806 19.834 17.8226C20.3734 18.1456 20.9332 18.5025 21.4524 18.8847C22.9981 20.0109 24.2495 21.4399 25.0764 23.0143C25.4231 23.6637 25.4688 24.4467 25.1931 25.1519C24.9073 25.8588 24.3374 26.3983 23.6305 26.6333C23.3549 26.7297 23.064 26.7805 22.7816 26.7805C22.1626 26.7805 21.5623 26.5538 21.0989 26.1412C19.0206 24.2624 17.8774 21.1118 18.2004 18.1169L18.2071 18.0611C18.2274 17.9309 18.241 17.7939 18.2646 17.6654L18.3712 16.9585L19.1406 17.41ZM44.9132 26.1446H44.9064C44.4498 26.5572 43.8512 26.7838 43.2238 26.7838C42.9413 26.7838 42.6538 26.7331 42.3748 26.6367C41.6679 26.4 41.1031 25.8605 40.819 25.157C40.54 24.4467 40.5822 23.6654 40.9357 23.0127C41.7559 21.4399 43.0141 20.0109 44.5597 18.8863C45.3021 18.3333 46.1358 17.8412 46.8715 17.41L47.6376 16.9602L47.7441 17.6687C47.7644 17.7956 47.7847 17.9326 47.8033 18.0645L47.8067 18.1186C48.128 21.1135 46.9916 24.2658 44.9132 26.1446Z" fill="white"/>
</g>
</g>
</g>
</svg>
