<svg width="171" height="34" viewBox="0 0 171 34" fill="none" xmlns="http://www.w3.org/2000/svg">
<g id="Group">
<g id="Group_2">
<g id="Group_3">
<path id="Vector" d="M67.0943 19.3244C66.8144 18.8442 66.4166 18.4491 65.898 18.127C65.3765 17.811 64.8933 17.5527 64.4425 17.3551C63.9946 17.1576 63.4436 16.9601 62.8013 16.7625C62.2444 16.5832 61.7966 16.4343 61.4725 16.3249C61.1425 16.2125 60.7712 16.0605 60.3587 15.8691C59.9462 15.6837 59.6339 15.4983 59.4188 15.3251C59.2037 15.1458 59.0181 14.93 58.8678 14.6656C58.7175 14.4012 58.6409 14.1217 58.6409 13.8208C58.6409 13.1553 58.9297 12.6052 59.5219 12.1737C60.1083 11.7422 60.8684 11.5264 61.7907 11.5264C62.8455 11.5264 63.6764 11.8151 64.2922 12.4016C64.908 12.9821 65.2144 13.754 65.2144 14.7234H67.1945C67.1945 13.5321 66.723 12.5809 65.7831 11.8637C64.8491 11.1465 63.5939 10.7788 62.0411 10.7788C60.509 10.7788 59.2685 11.1192 58.3257 11.8029C57.3799 12.4806 56.9025 13.365 56.9025 14.4499C56.9025 14.9999 57.0351 15.4922 57.2974 15.9268C57.5537 16.3644 57.9426 16.7473 58.4524 17.0755C58.968 17.4037 59.4925 17.6742 60.0317 17.8961C60.5709 18.124 61.2338 18.3519 62.0234 18.5859C62.4242 18.7044 62.7659 18.8138 63.04 18.9202C63.314 19.0205 63.6381 19.1663 64.0211 19.3517C64.3983 19.531 64.6988 19.7225 64.9316 19.9078C65.1585 20.0993 65.3559 20.3394 65.5297 20.625C65.6977 20.9137 65.7861 21.2237 65.7861 21.5641C65.7861 22.2813 65.462 22.8739 64.8167 23.3419C64.1714 23.8038 63.3376 24.0347 62.3093 24.0347C61.1955 24.0347 60.3086 23.74 59.6457 23.1595C58.9886 22.5791 58.6586 21.795 58.6586 20.8195H56.6963C56.6963 22.0047 57.1883 22.962 58.1636 23.6853C59.1389 24.4146 60.4383 24.7732 62.0588 24.7732C63.6823 24.7732 64.9964 24.4207 66.0041 23.7065C67.0088 22.9954 67.5127 22.0594 67.5127 20.9107C67.5097 20.3363 67.3712 19.8015 67.0943 19.3244Z" fill="white"/>
<path id="Vector_2" d="M77.7893 16.0912C77.0762 15.4256 76.1245 15.0974 74.946 15.0974C73.6701 15.0974 72.6418 15.4743 71.864 16.234V9.94336H70.0254V24.6458H71.864V19.0602C71.864 18.0665 72.1026 17.2642 72.5711 16.6595C73.0366 16.0486 73.6613 15.7447 74.4333 15.7447C75.2052 15.7447 75.8269 16.0486 76.2954 16.6595C76.7668 17.2642 76.9967 18.0665 76.9967 19.0602V24.6458H78.8588V18.7077C78.8618 17.6228 78.5023 16.7506 77.7893 16.0912Z" fill="white"/>
<path id="Vector_3" d="M88.8771 15.9726C88.1051 15.3922 87.068 15.0974 85.7597 15.0974C84.5075 15.0974 83.5028 15.3557 82.7544 15.8632C82.0119 16.3707 81.6347 17.0545 81.6347 17.8993H83.4232C83.4232 17.2642 83.6265 16.7445 84.0331 16.3434C84.4397 15.9422 84.9789 15.7447 85.6478 15.7447C86.3962 15.7447 87.0061 15.9909 87.4746 16.468C87.946 16.9542 88.1758 17.5802 88.1758 18.3521V19.5495C87.3391 19.2608 86.4463 19.118 85.4946 19.118C84.2423 19.118 83.2258 19.3884 82.4538 19.9263C81.6819 20.4703 81.293 21.1845 81.293 22.0566C81.293 22.8772 81.6465 23.5396 82.3478 24.038C83.049 24.5334 84.0007 24.7795 85.1911 24.7795C86.6584 24.7795 87.7781 24.4209 88.5559 23.7007L88.7828 24.424C88.9213 24.5668 89.0833 24.6397 89.2749 24.6397H90.035V18.3491C90.038 17.3493 89.6491 16.5531 88.8771 15.9726ZM88.1758 21.6281C88.1758 22.3879 87.9431 22.9926 87.4746 23.4485C87.0032 23.9104 86.3844 24.1383 85.6124 24.1383C84.8758 24.1383 84.2895 23.9529 83.8534 23.5822C83.4173 23.2114 83.1964 22.707 83.1964 22.0809C83.1964 21.3881 83.4527 20.835 83.9565 20.4156C84.4604 19.9962 85.1292 19.7865 85.9542 19.7865C86.9177 19.7865 87.6602 19.9658 88.1758 20.3366V21.6281Z" fill="white"/>
<path id="Vector_4" d="M97.3986 18.7658L100.74 15.2345H99.5053L94.9265 20.0574V9.94067H93.082V24.6462H94.9265V21.3732L96.1787 20.0452L99.2195 24.6492H101.273L97.3986 18.7658Z" fill="white"/>
<path id="Vector_5" d="M111.075 16.0909C110.356 15.4254 109.411 15.0972 108.232 15.0972C106.95 15.0972 105.928 15.474 105.15 16.2338V9.94312H103.312V24.6456H105.15V19.06C105.15 18.0662 105.389 17.264 105.857 16.6592C106.323 16.0484 106.942 15.7445 107.719 15.7445C108.491 15.7445 109.113 16.0484 109.582 16.6592C110.047 17.264 110.283 18.0662 110.283 19.06V24.6456H112.145V18.7075C112.148 17.6226 111.788 16.7504 111.075 16.0909Z" fill="white"/>
<path id="Vector_6" d="M119.81 10.9187V11.8395H124.922V24.6457H126.86V11.8425H131.955V10.9217H119.81V10.9187Z" fill="white"/>
<path id="Vector_7" d="M139.848 16.431C138.994 15.5406 137.874 15.0969 136.483 15.0969C135.09 15.0969 133.964 15.5406 133.107 16.431C132.252 17.3184 131.825 18.4914 131.825 19.938C131.825 21.3937 132.255 22.5606 133.107 23.4449C133.964 24.3354 135.093 24.779 136.483 24.779C137.877 24.779 138.997 24.3354 139.848 23.4449C140.697 22.5606 141.118 21.3906 141.118 19.938C141.121 18.4914 140.697 17.3184 139.848 16.431ZM138.478 22.98C137.969 23.7519 137.306 24.1348 136.481 24.1348C135.656 24.1348 134.99 23.7519 134.483 22.98C133.979 22.2081 133.723 21.19 133.723 19.9228C133.723 18.6768 133.979 17.6709 134.483 16.899C134.987 16.1332 135.656 15.7442 136.481 15.7442C137.306 15.7442 137.966 16.1332 138.478 16.899C138.982 17.6709 139.238 18.6768 139.238 19.9228C139.238 21.19 138.985 22.2081 138.478 22.98Z" fill="white"/>
<path id="Vector_8" d="M150.476 15.2341V20.9808C150.476 21.932 150.238 22.6978 149.775 23.2722C149.303 23.8465 148.679 24.1352 147.889 24.1352C147.117 24.1352 146.501 23.8526 146.039 23.2904C145.576 22.7282 145.343 21.9685 145.343 20.999V15.2341H143.505V21.3516C143.505 22.4122 143.853 23.2479 144.557 23.8587C145.264 24.4756 146.198 24.7795 147.365 24.7795C148.856 24.7795 149.993 24.2933 150.765 23.3299L151.089 24.4087C151.21 24.5637 151.378 24.6427 151.581 24.6427H152.341V15.2341H150.476Z" fill="white"/>
<path id="Vector_9" d="M158.541 15.6474C157.913 16.0121 157.439 16.5226 157.109 17.173L156.599 15.4924C156.472 15.3192 156.31 15.2341 156.124 15.2341H155.364V24.6457H157.203V19.3367C157.203 18.5344 157.471 17.8871 157.992 17.3857C158.52 16.8842 159.159 16.632 159.908 16.632C160.208 16.632 160.47 16.6867 160.686 16.8052V15.1004C159.881 15.0973 159.168 15.2827 158.541 15.6474Z" fill="white"/>
<path id="Vector_10" d="M169.145 20.2759C168.738 19.9872 167.943 19.6408 166.764 19.2335C166.711 19.2214 166.667 19.2092 166.626 19.1971C166.578 19.1849 166.528 19.1606 166.464 19.1363C165.842 18.9266 165.373 18.7595 165.064 18.6349C164.752 18.5163 164.466 18.331 164.21 18.0909C163.947 17.8447 163.815 17.5651 163.815 17.2339C163.815 16.7902 164.006 16.4316 164.377 16.1551C164.749 15.8785 165.235 15.7418 165.833 15.7418C166.517 15.7418 167.068 15.9393 167.486 16.3283C167.904 16.7234 168.114 17.2309 168.114 17.8599H169.878C169.878 17.0212 169.519 16.3526 168.8 15.8481C168.075 15.3467 167.112 15.0945 165.91 15.0945C164.743 15.0945 163.809 15.3285 163.113 15.7874C162.418 16.2554 162.07 16.8753 162.07 17.6594C162.082 18.4313 162.483 19.0664 163.267 19.5617C163.638 19.7714 164.463 20.1057 165.739 20.5616C165.792 20.5737 165.871 20.6041 165.989 20.6406C166.355 20.7591 166.661 20.8685 166.9 20.9627C167.144 21.06 167.386 21.1845 167.63 21.3274C167.881 21.4702 168.061 21.6434 168.181 21.847C168.302 22.0446 168.361 22.2786 168.361 22.5399C168.361 23.0262 168.158 23.4091 167.745 23.6947C167.333 23.9834 166.788 24.1263 166.122 24.1263C165.385 24.1263 164.793 23.9287 164.345 23.5397C163.891 23.1447 163.667 22.6372 163.667 22.0081H161.879C161.879 22.8347 162.262 23.4972 163.022 24.0077C163.782 24.5213 164.787 24.7736 166.045 24.7736C167.271 24.7736 168.255 24.5274 168.989 24.0381C169.725 23.5519 170.091 22.8955 170.091 22.0689C170.091 21.3456 169.775 20.7409 169.145 20.2759Z" fill="white"/>
</g>
</g>
<g id="Group 1">
<path id="Vector_11" d="M30.5973 27.9591C30.5973 27.9805 30.5921 27.9965 30.587 28.0179C30.3939 28.5458 29.8614 28.9493 27.4812 28.8251C27.3983 28.8197 27.3192 28.8197 27.2415 28.8144L26.3021 30.1013L25.9834 30.5476L25.0388 31.8506L23.9582 33.3366H22.9035L24.9818 28.658C23.7185 28.5551 22.4811 28.4375 21.6195 28.356L20.6801 29.7338H19.9805L20.1061 29.3142L20.4612 28.1355L20.5182 27.9578L20.4612 27.78L20.1061 26.6013L19.9805 26.1817H20.6801L21.6195 27.5595C22.4811 27.4793 23.7185 27.3604 24.9818 27.2575L22.9035 22.5789H23.9582L25.0388 24.0649L25.9834 25.3679L26.3021 25.8142L27.2415 27.1011C27.3192 27.0958 27.3983 27.0904 27.4812 27.0904C29.8614 26.9662 30.3939 27.3711 30.587 27.8976C30.5921 27.9217 30.5973 27.9377 30.5973 27.9591Z" fill="white"/>
<g id="Group_4">
<path id="Vector_12" d="M50.553 21.6994V21.67C50.5452 21.5805 50.5375 21.4883 50.5297 21.396C50.2589 18.8329 48.7766 16.3606 46.4664 14.6126C45.829 14.1315 45.1319 13.7092 44.5164 13.3391L44.4141 13.2789C43.5719 12.7711 42.7957 12.2967 42.1025 11.7234C41.4029 11.1447 40.8263 10.4284 40.4816 9.71215C40.3793 9.51169 40.181 9.3834 39.9608 9.3834C39.7314 9.3834 39.5397 9.50501 39.4399 9.71215C39.103 10.4178 38.5239 11.1314 37.8164 11.7234C37.7503 11.7782 37.6791 11.8316 37.6117 11.8837L37.1427 12.2392L36.9535 11.8129C36.1191 9.91795 34.7456 8.21541 32.9822 6.88038C32.2242 6.31242 31.4079 5.8193 30.6241 5.34088L30.5035 5.27005C29.5797 4.71144 28.6222 4.13814 27.7709 3.42719C26.921 2.72426 26.2239 1.85829 25.8054 0.986976C25.703 0.791866 25.5022 0.663574 25.2871 0.663574C25.063 0.663574 24.8634 0.793203 24.7637 0.989649C24.3452 1.85829 23.6455 2.72426 22.7955 3.42719C21.9429 4.13814 20.9893 4.71144 20.0629 5.27005L19.9709 5.32751C19.165 5.81395 18.3448 6.30975 17.5843 6.88038C15.8182 8.21541 14.4448 9.91795 13.6156 11.8129L13.4212 12.2392L12.9522 11.8837C12.8861 11.8316 12.82 11.7782 12.75 11.7234C12.7267 11.7047 12.7047 11.6833 12.6814 11.6632C12.0024 11.0846 11.4569 10.395 11.1252 9.71348C11.0307 9.50501 10.8337 9.38474 10.6044 9.38474C10.3906 9.38474 10.1859 9.51436 10.0887 9.71348C9.74146 10.4298 9.16746 11.1447 8.4652 11.7247C7.77071 12.298 6.9933 12.7724 6.17053 13.2696L6.04745 13.3404C5.432 13.7119 4.73621 14.1329 4.10262 14.614C1.78852 16.3619 0.304955 18.8329 0.0393387 21.3947C0.0263819 21.4896 0.0186087 21.5818 0.0160173 21.6713C-0.107073 23.4634 0.482471 25.1566 1.6745 26.4676C2.88208 27.7973 4.58591 28.5603 6.34934 28.5603H17.307C17.465 28.5603 17.6257 28.4868 17.741 28.3626C17.8512 28.2316 17.9043 28.0752 17.8887 27.9015C17.8576 27.6008 17.5804 27.3643 17.2513 27.3643H6.34934C4.90465 27.3643 3.50919 26.7375 2.52706 25.6484C1.55789 24.5873 1.07201 23.2082 1.164 21.7716L1.17436 21.6927C1.17955 21.6272 1.18214 21.5658 1.18991 21.519C1.42443 19.2926 2.73438 17.1263 4.78286 15.5895C5.35944 15.1498 5.97229 14.773 6.61495 14.3814L6.77563 14.2865C7.53879 13.8282 8.4043 13.3043 9.18948 12.6548C9.59503 12.3181 9.97338 11.9359 10.3154 11.5122L10.6018 11.1568L10.8907 11.5122C11.2198 11.9198 11.5982 12.3074 12.0219 12.6548C12.0776 12.7003 12.132 12.7444 12.1877 12.7858C12.3976 12.9542 12.6062 13.1119 12.8304 13.2722L13.0493 13.4139L12.991 13.6772C12.8913 14.0901 12.8226 14.4964 12.7863 14.8879C12.4896 17.6382 13.4834 20.4419 15.3816 22.2099C16.216 22.981 17.4003 23.2255 18.4796 22.8447C19.3451 22.5346 20.0331 21.8544 20.37 20.9818C20.7069 20.1024 20.6563 19.1202 20.2301 18.289C19.5109 16.8858 18.4329 15.6176 17.1139 14.614C16.6241 14.2478 16.1059 13.9137 15.598 13.6063C15.4166 13.4927 15.2352 13.3858 15.0564 13.2803L14.4215 12.8927L14.5484 12.5853C15.2779 10.7719 16.562 9.13216 18.2619 7.85325C18.9745 7.31336 19.739 6.8483 20.484 6.40062L20.6045 6.32979C21.5361 5.76718 22.5843 5.13775 23.5185 4.36131C24.0769 3.90027 24.5654 3.3871 24.9762 2.8432L25.2599 2.4797L25.2858 2.50643L25.3014 2.49039L25.5799 2.8432C25.9907 3.38844 26.483 3.9016 27.0428 4.36131C27.9718 5.13775 29.02 5.7645 29.9412 6.32177L30.0734 6.40062C30.8184 6.8483 31.5868 7.31336 32.2968 7.85325C33.9967 9.13216 35.2769 10.7719 36.0128 12.588L36.1359 12.894L35.5062 13.2816C34.8273 13.6812 34.1108 14.1182 33.4474 14.6193C32.1258 15.6189 31.049 16.8885 30.3338 18.2917C29.9075 19.1229 29.8544 20.1051 30.1913 20.9844C30.5256 21.8584 31.2149 22.5373 32.0843 22.8473C33.1584 23.2295 34.3479 22.9837 35.1797 22.2126C37.0753 20.4432 38.0743 17.6408 37.7775 14.8933C37.7387 14.499 37.6674 14.0928 37.5728 13.6825L37.5145 13.4166L37.7361 13.2722C38.0121 13.0718 38.2803 12.87 38.5394 12.6562C38.9605 12.3087 39.3401 11.9225 39.6679 11.5136L39.9621 11.1581L40.2484 11.5136C40.5853 11.9372 40.9649 12.3194 41.3692 12.6562C42.1583 13.307 43.0251 13.8295 43.7908 14.2906L43.9437 14.3828C44.5916 14.7743 45.1992 15.1512 45.781 15.5908C47.8282 17.1277 49.1368 19.2939 49.3714 21.5337C49.3791 21.5684 49.3843 21.6286 49.3869 21.686L49.3947 21.7649C49.4867 23.2095 49.0073 24.5886 48.0368 25.6497C47.0521 26.7389 45.6579 27.3656 44.2093 27.3656H33.3074C32.9809 27.3656 32.7023 27.6022 32.6751 27.9028C32.657 28.0766 32.7088 28.2316 32.8228 28.3639C32.9381 28.4882 33.0936 28.5617 33.2517 28.5617H44.2093C45.978 28.5617 47.6805 27.7986 48.8868 26.4689C50.0814 25.1553 50.6696 23.4634 50.553 21.6994ZM14.6651 14.4215C14.8361 14.5244 15.0149 14.6353 15.1963 14.7476C15.6096 15.0028 16.0385 15.2848 16.4363 15.5868C17.6205 16.4769 18.5793 17.6061 19.2129 18.8503C19.4785 19.3634 19.5135 19.9822 19.3023 20.5394C19.0834 21.098 18.6467 21.5243 18.1051 21.7101C17.8939 21.7863 17.6711 21.8264 17.4547 21.8264C16.9805 21.8264 16.5205 21.6473 16.1655 21.3212C14.5731 19.8365 13.6972 17.3468 13.9447 14.9801L13.9498 14.936C13.9654 14.8331 13.9758 14.7249 13.9939 14.6233L14.0755 14.0647L14.6651 14.4215ZM34.4113 21.3239H34.4062C34.0563 21.65 33.5977 21.829 33.117 21.829C32.9006 21.829 32.6803 21.7889 32.4665 21.7128C31.9249 21.5257 31.4922 21.0994 31.2745 20.5434C31.0607 19.9822 31.0931 19.3648 31.3639 18.8489C31.9923 17.6061 32.9563 16.4769 34.1406 15.5882C34.7094 15.1512 35.3481 14.7623 35.9117 14.4215L36.4987 14.066L36.5803 14.626C36.5959 14.7262 36.6114 14.8345 36.6257 14.9387L36.6283 14.9815C36.8744 17.3482 36.0037 19.8392 34.4113 21.3239Z" fill="white"/>
</g>
</g>
</g>
</svg>
