<svg width="65" height="21" viewBox="0 0 65 21" fill="none" xmlns="http://www.w3.org/2000/svg">
<g clip-path="url(#clip0_351_10238)">
<path d="M33.4022 6.77388C33.3656 9.54882 35.9747 11.0972 37.94 12.018C39.9593 12.9626 40.6375 13.5683 40.6295 14.4132C40.6145 15.7059 39.0188 16.2765 37.5257 16.2987C34.9207 16.3375 33.406 15.6226 32.2019 15.0818L31.2634 19.3033C32.4716 19.8385 34.7086 20.3052 37.0284 20.3257C42.4738 20.3257 46.0363 17.7416 46.0556 13.7351C46.0769 8.65026 38.7396 8.36882 38.7897 6.09604C38.807 5.40689 39.4911 4.67147 40.99 4.48448C41.7319 4.39002 43.7799 4.31773 46.102 5.34568L47.0133 1.26135C45.7646 0.824238 44.1597 0.405684 42.1615 0.405684C37.0362 0.405684 33.4313 3.02496 33.4022 6.77388ZM55.7706 0.75749C54.7763 0.75749 53.9383 1.31508 53.5644 2.17074L45.7859 20.0257H51.2273L52.3101 17.1488H58.9594L59.5875 20.0257H64.3835L60.1983 0.75749H55.7706ZM56.5318 5.96255L58.1021 13.198H53.8015L56.5318 5.96255ZM26.8049 0.75773L22.5157 20.0254H27.7009L31.9881 0.75725H26.8049M19.1342 0.75725L13.7372 13.8722L11.554 2.72111C11.2978 1.47629 10.2862 0.75749 9.16278 0.75749H0.340368L0.216797 1.31701C2.028 1.69484 4.08585 2.30424 5.33258 2.95629C6.09557 3.3546 6.31313 3.70279 6.56378 4.6493L10.6988 20.0257H16.1783L24.5791 0.75749L19.1342 0.75725Z" fill="#1A0290"/>
</g>
<defs>
<clipPath id="clip0_351_10238">
<rect width="64.1667" height="20" fill="white" transform="translate(0.216797 0.405762)"/>
</clipPath>
</defs>
</svg>
