<svg width="20" height="20" viewBox="0 0 20 20" fill="none" xmlns="http://www.w3.org/2000/svg">
<g id="united-kingdom 1">
<g clip-path="url(#clip0_124_4523)">
<rect width="20" height="20" rx="10" fill="white"/>
<g id="Group">
<path id="Vector" d="M9.33594 0.0234375C9.26172 0.03125 9.08984 0.0507812 8.95703 0.0625L8.71094 0.0859375L8.70312 4.38672L8.69141 8.69141L4.38672 8.70312L0.0859375 8.71094L0.0507812 8.97656C0.0117188 9.31641 0.0117188 10.6836 0.0507812 11.0234L0.0859375 11.2891L4.38672 11.2969L8.69141 11.3086L8.70312 15.6133L8.71094 19.9141L8.97656 19.9492C9.31641 19.9883 10.6836 19.9883 11.0234 19.9492L11.2891 19.9141L11.2969 15.6133L11.3086 11.3086L15.6133 11.2969L19.9141 11.2891L19.9492 11.0234C19.9883 10.6836 19.9883 9.31641 19.9492 8.97656L19.9141 8.71094L15.6133 8.70312L11.3086 8.69141L11.2969 4.39062L11.2891 0.0898438L11.1211 0.0625C10.918 0.03125 9.52344 0 9.33594 0.0234375Z" fill="#D80027"/>
<path id="Vector_2" d="M7.01172 0.464844C6.16406 0.722656 5.28516 1.14453 4.47266 1.68359C4.18359 1.875 3.94531 2.04688 3.94531 2.0625C3.94531 2.07812 4.71875 2.86328 5.66406 3.80859L7.38281 5.52734V2.9375C7.38281 1.51562 7.37891 0.351562 7.375 0.355469C7.36719 0.355469 7.20703 0.40625 7.01172 0.464844Z" fill="#0052B4"/>
<path id="Vector_3" d="M12.6172 2.93359V5.52734L14.3359 3.80859C15.2812 2.86328 16.0547 2.07812 16.0547 2.0625C16.0547 2.00781 15.0078 1.33984 14.582 1.12109C14.0859 0.867187 13.418 0.589843 13.0039 0.46875C12.8516 0.421875 12.6992 0.375 12.6719 0.363281C12.625 0.347656 12.6172 0.753906 12.6172 2.93359Z" fill="#0052B4"/>
<path id="Vector_4" d="M14.5195 4.25L12.6172 6.15234V6.75781V7.36328L14.832 5.14844L17.0508 2.92969L16.875 2.75C16.7773 2.65234 16.6367 2.52344 16.5586 2.46094L16.4219 2.34766L14.5195 4.25Z" fill="#D80027"/>
<path id="Vector_5" d="M2.61719 3.26953L2.33984 3.57031L4.24609 5.47656L6.15234 7.38281H6.75781H7.36328L5.15625 5.17578C3.94141 3.96094 2.9375 2.96875 2.92578 2.96875C2.91016 2.96875 2.77344 3.10547 2.61719 3.26953Z" fill="#D80027"/>
<path id="Vector_6" d="M1.68402 4.47266C1.15668 5.26953 0.699645 6.21484 0.469176 6.99609C0.422301 7.14844 0.375426 7.30078 0.363707 7.32812C0.348082 7.375 0.754332 7.38281 2.93402 7.38281H5.52777L3.80902 5.66406C2.86371 4.71875 2.07855 3.94531 2.06293 3.94531C2.0473 3.94531 1.87543 4.18359 1.68402 4.47266Z" fill="#0052B4"/>
<path id="Vector_7" d="M16.1914 5.66406L14.4727 7.38281H17.0664C19.2461 7.38281 19.6523 7.375 19.6367 7.32812C19.625 7.30078 19.5781 7.14844 19.5313 6.99609C19.4102 6.58203 19.1328 5.91406 18.8828 5.42969C18.6641 5 17.9922 3.94531 17.9375 3.94531C17.9219 3.94531 17.1367 4.71875 16.1914 5.66406Z" fill="#0052B4"/>
<path id="Vector_8" d="M0.363707 12.6719C0.375426 12.6992 0.422301 12.8516 0.469176 13.0039C0.59027 13.418 0.867613 14.0859 1.11761 14.5703C1.33636 15 2.00824 16.0547 2.06293 16.0547C2.07855 16.0547 2.86371 15.2812 3.80902 14.3359L5.52777 12.6172H2.93402C0.754332 12.6172 0.348082 12.625 0.363707 12.6719Z" fill="#0052B4"/>
<path id="Vector_9" d="M14.8555 14.832L17.0742 17.0508L17.3672 16.7422L17.6641 16.4336L15.7539 14.5234L13.8477 12.6172H13.2422H12.6367L14.8555 14.832Z" fill="#D80027"/>
<path id="Vector_10" d="M16.1914 14.3359C17.1367 15.2812 17.9219 16.0547 17.9375 16.0547C17.9922 16.0547 18.6641 15 18.8828 14.5703C19.1328 14.0859 19.4102 13.418 19.5313 13.0039C19.5781 12.8516 19.625 12.6992 19.6367 12.6719C19.6523 12.625 19.2461 12.6172 17.0664 12.6172H14.4727L16.1914 14.3359Z" fill="#0052B4"/>
<path id="Vector_11" d="M5.15625 14.8672L2.94922 17.0742L3.25781 17.3672L3.56641 17.6641L5.47656 15.7539L7.38672 13.8438L7.375 13.25L7.36328 12.6562L5.15625 14.8672Z" fill="#D80027"/>
<path id="Vector_12" d="M5.65234 16.2031C4.71484 17.1406 3.94531 17.9219 3.94531 17.9375C3.94531 17.9961 5.01562 18.6719 5.46094 18.8984C5.97266 19.1602 6.67578 19.4453 7.10156 19.5625L7.38281 19.6406V17.0664C7.38281 15.6523 7.37891 14.4922 7.37109 14.4922C7.36719 14.4922 6.59375 15.2617 5.65234 16.2031Z" fill="#0052B4"/>
<path id="Vector_13" d="M12.6172 17.0665C12.6172 19.2462 12.625 19.6524 12.6719 19.6368C12.6992 19.6251 12.8516 19.5782 13.0039 19.5313C13.418 19.4102 14.0859 19.1329 14.5703 18.8829C15 18.6641 16.0547 17.9922 16.0547 17.9376C16.0547 17.9219 15.2812 17.1368 14.3359 16.1915L12.6172 14.4727V17.0665Z" fill="#0052B4"/>
</g>
</g>
</g>
<defs>
<clipPath id="clip0_124_4523">
<rect width="20" height="20" rx="10" fill="white"/>
</clipPath>
</defs>
</svg>
