<svg width="24" height="24" viewBox="0 0 24 24" fill="none" xmlns="http://www.w3.org/2000/svg">
<path d="M14.9994 7.28557C14.9994 5.62789 13.6571 4.28557 11.9994 4.28557C10.3418 4.28557 8.99944 5.62789 8.99944 7.28557C8.99944 8.94326 10.3418 10.2856 11.9994 10.2856C13.6571 10.2856 14.9994 8.94326 14.9994 7.28557ZM16.7137 7.28557C16.7137 9.89003 14.6039 11.9999 11.9994 11.9999C9.39498 11.9999 7.28516 9.89003 7.28516 7.28557C7.28516 4.68112 9.39498 2.57129 11.9994 2.57129C14.6039 2.57129 16.7137 4.68112 16.7137 7.28557ZM5.99944 17.6937C5.99944 18.5024 5.93076 18.4284 6.3902 18.4284H18.0373C18.4967 18.4284 18.428 18.5024 18.428 17.6937C18.428 15.7325 15.596 14.5713 12.2137 14.5713C8.83146 14.5713 5.99944 15.7325 5.99944 17.6937ZM4.28516 17.6937C4.28516 14.3678 7.96994 12.857 12.2137 12.857C16.4575 12.857 20.1423 14.3678 20.1423 17.6937C20.1423 19.4221 19.4728 20.1427 18.0373 20.1427H6.3902C4.95468 20.1427 4.28516 19.4221 4.28516 17.6937Z" fill="#111126"/>
</svg>
