<svg width="42" height="25" viewBox="0 0 42 25" fill="none" xmlns="http://www.w3.org/2000/svg">
<path fill-rule="evenodd" clip-rule="evenodd" d="M41.0405 19.552V20.2944H40.9319V19.7333L40.7652 20.2178H40.6518L40.485 19.7345V20.2944H40.3754V19.552H40.5306L40.708 20.062L40.8864 19.552H41.0405ZM40.0642 19.6779V20.2938H39.9556V19.6779H39.7578V19.5526H40.2619V19.6779H40.0642Z" fill="#F79410"/>
<path d="M26.2083 21.8427H15.0801V2.97412H26.2083V21.8427Z" fill="#FF5F00"/>
<path d="M15.7942 12.4058C15.7942 8.57818 17.6937 5.16868 20.6517 2.97147C18.4885 1.36475 15.7586 0.405762 12.7917 0.405762C5.76784 0.405762 0.0742187 5.77826 0.0742187 12.4058C0.0742187 19.0333 5.76784 24.4058 12.7917 24.4058C15.7586 24.4058 18.4885 23.4468 20.6517 21.8401C17.6937 19.6428 15.7942 16.2333 15.7942 12.4058Z" fill="#EB001B"/>
<path d="M41.2169 12.4058C41.2169 19.0333 35.5233 24.4058 28.4995 24.4058C25.5326 24.4058 22.8026 23.4468 20.6387 21.8401C23.5975 19.6428 25.497 16.2333 25.497 12.4058C25.497 8.57818 23.5975 5.16868 20.6387 2.97147C22.8026 1.36475 25.5326 0.405762 28.4995 0.405762C35.5233 0.405762 41.2169 5.77826 41.2169 12.4058Z" fill="#EDAE01"/>
</svg>
